<?xml version="1.0" encoding="utf-8"?>
<!-- Generator: Adobe Illustrator 21.0.0, SVG Export Plug-In . SVG Version: 6.00 Build 0)  -->
<svg version="1.1" id="Layer_1" xmlns="http://www.w3.org/2000/svg" xmlns:xlink="http://www.w3.org/1999/xlink" x="0px" y="0px"
	 viewBox="0 0 200 200" style="enable-background:new 0 0 200 200;" xml:space="preserve">
<style type="text/css">
	.st0{fill:none;stroke:#FFFFFF;stroke-width:0.5;stroke-miterlimit:10;}
	.st1{fill:#FFFFFF;}
</style>
<line class="st0" x1="181.818" y1="0.25" x2="181.818" y2="199.75"/>
<line class="st0" x1="163.636" y1="0.25" x2="163.636" y2="199.75"/>
<line class="st0" x1="145.455" y1="0.25" x2="145.455" y2="199.75"/>
<line class="st0" x1="127.273" y1="0.25" x2="127.273" y2="199.75"/>
<line class="st0" x1="109.091" y1="0.25" x2="109.091" y2="199.75"/>
<line class="st0" x1="90.909" y1="0.25" x2="90.909" y2="199.75"/>
<line class="st0" x1="72.727" y1="0.25" x2="72.727" y2="199.75"/>
<line class="st0" x1="54.545" y1="0.25" x2="54.545" y2="199.75"/>
<line class="st0" x1="36.364" y1="0.25" x2="36.364" y2="199.75"/>
<line class="st0" x1="18.182" y1="0.25" x2="18.182" y2="199.75"/>
<line class="st0" x1="199.75" y1="181.818" x2="0.25" y2="181.818"/>
<line class="st0" x1="199.75" y1="163.636" x2="0.25" y2="163.636"/>
<line class="st0" x1="199.75" y1="145.455" x2="0.25" y2="145.455"/>
<line class="st0" x1="199.75" y1="127.273" x2="0.25" y2="127.273"/>
<line class="st0" x1="199.75" y1="109.091" x2="0.25" y2="109.091"/>
<line class="st0" x1="199.75" y1="90.909" x2="0.25" y2="90.909"/>
<line class="st0" x1="199.75" y1="72.727" x2="0.25" y2="72.727"/>
<line class="st0" x1="199.75" y1="54.545" x2="0.25" y2="54.545"/>
<line class="st0" x1="199.75" y1="36.364" x2="0.25" y2="36.364"/>
<line class="st0" x1="199.75" y1="18.182" x2="0.25" y2="18.182"/>
<path class="st1" d="M11.188,12.409c0,0.228-0.02,0.426-0.06,0.594H7.565c-0.04-0.168-0.059-0.366-0.059-0.594
	c0-0.238,0.02-0.436,0.059-0.594h1.187c-0.04-0.168-0.059-0.366-0.059-0.594c0-0.238,0.02-0.436,0.059-0.594
	c-0.04-0.168-0.059-0.366-0.059-0.594c0-0.237,0.02-0.435,0.059-0.594c-0.04-0.168-0.059-0.366-0.059-0.594
	c0-0.237,0.02-0.435,0.059-0.594c-0.04-0.168-0.059-0.366-0.059-0.594c0-0.237,0.02-0.436,0.059-0.594H7.862
	c-0.04-0.168-0.059-0.366-0.059-0.594c0-0.238,0.02-0.436,0.059-0.594h0.891c-0.04-0.168-0.059-0.366-0.059-0.594
	c0-0.238,0.02-0.436,0.059-0.594h1.188C9.98,4.848,10,5.046,10,5.284c0,0.228-0.02,0.425-0.059,0.594C9.98,6.036,10,6.233,10,6.471
	c0,0.228-0.02,0.425-0.059,0.594C9.98,7.223,10,7.421,10,7.659c0,0.228-0.02,0.426-0.059,0.594C9.98,8.411,10,8.609,10,8.846
	c0,0.228-0.02,0.426-0.059,0.594C9.98,9.599,10,9.796,10,10.034c0,0.228-0.02,0.426-0.059,0.594C9.98,10.786,10,10.984,10,11.222
	c0,0.228-0.02,0.425-0.059,0.594h1.188C11.168,11.974,11.188,12.171,11.188,12.409z"/>
<path class="st1" d="M29.553,8.252h-0.742c0.04,0.159,0.059,0.356,0.059,0.594c0,0.228-0.02,0.426-0.059,0.594h-0.742
	c0.039,0.159,0.059,0.356,0.059,0.594c0,0.228-0.02,0.426-0.059,0.594h-0.742c0.039,0.158,0.059,0.356,0.059,0.594
	c0,0.228-0.02,0.425-0.059,0.594h2.227c0.04,0.158,0.06,0.356,0.06,0.594c0,0.228-0.02,0.426-0.06,0.594h-4.157
	c-0.04-0.168-0.059-0.366-0.059-0.594c0-0.238,0.02-0.436,0.059-0.594h0.742c-0.04-0.168-0.059-0.366-0.059-0.594
	c0-0.238,0.02-0.436,0.059-0.594h0.742c-0.04-0.168-0.059-0.366-0.059-0.594c0-0.237,0.02-0.435,0.059-0.594h0.743
	c-0.04-0.168-0.06-0.366-0.06-0.594c0-0.237,0.02-0.435,0.06-0.594h0.742c-0.04-0.168-0.06-0.366-0.06-0.594
	c0-0.237,0.02-0.436,0.06-0.594c-0.04-0.168-0.06-0.366-0.06-0.594c0-0.238,0.02-0.436,0.06-0.594h-2.079
	c0.04,0.158,0.06,0.356,0.06,0.594c0,0.228-0.02,0.425-0.06,0.594h-0.891c-0.04-0.168-0.059-0.366-0.059-0.594
	c0-0.238,0.02-0.436,0.059-0.594h0.594c-0.04-0.168-0.059-0.366-0.059-0.594c0-0.238,0.02-0.436,0.059-0.594h2.969
	c0.04,0.159,0.059,0.356,0.059,0.594c0,0.228-0.02,0.425-0.059,0.594h0.594c0.04,0.158,0.06,0.356,0.06,0.594
	c0,0.228-0.02,0.425-0.06,0.594c0.04,0.158,0.06,0.356,0.06,0.594C29.612,7.886,29.592,8.085,29.553,8.252z"/>
<path class="st1" d="M11.425,26.131h-0.742c0.04,0.159,0.059,0.356,0.059,0.594c0,0.228-0.02,0.426-0.059,0.594H9.941
	C9.98,27.477,10,27.675,10,27.912c0,0.228-0.02,0.426-0.059,0.594H9.199c0.039,0.158,0.059,0.356,0.059,0.594
	c0,0.228-0.02,0.425-0.059,0.594h2.227c0.04,0.158,0.06,0.356,0.06,0.594c0,0.228-0.02,0.426-0.06,0.594H7.268
	c-0.04-0.168-0.059-0.366-0.059-0.594c0-0.238,0.02-0.436,0.059-0.594h0.742c-0.04-0.168-0.059-0.366-0.059-0.594
	c0-0.238,0.02-0.436,0.059-0.594h0.742c-0.04-0.168-0.059-0.366-0.059-0.594c0-0.237,0.02-0.435,0.059-0.594h0.743
	c-0.04-0.168-0.06-0.366-0.06-0.594c0-0.237,0.02-0.435,0.06-0.594h0.742c-0.04-0.168-0.06-0.366-0.06-0.594
	c0-0.237,0.02-0.436,0.06-0.594c-0.04-0.168-0.06-0.366-0.06-0.594c0-0.238,0.02-0.436,0.06-0.594H8.159
	c0.04,0.158,0.06,0.356,0.06,0.594c0,0.228-0.02,0.425-0.06,0.594H7.268c-0.04-0.168-0.059-0.366-0.059-0.594
	c0-0.238,0.02-0.436,0.059-0.594h0.594c-0.04-0.168-0.059-0.366-0.059-0.594c0-0.238,0.02-0.436,0.059-0.594h2.969
	c0.04,0.159,0.059,0.356,0.059,0.594c0,0.228-0.02,0.425-0.059,0.594h0.594c0.04,0.158,0.06,0.356,0.06,0.594
	c0,0.228-0.02,0.425-0.06,0.594c0.04,0.158,0.06,0.356,0.06,0.594C11.485,25.765,11.465,25.963,11.425,26.131z"/>
<path class="st1" d="M47.681,8.252h-0.594c0.04,0.159,0.059,0.356,0.059,0.594c0,0.228-0.02,0.426-0.059,0.594h0.594
	c0.04,0.159,0.06,0.356,0.06,0.594c0,0.228-0.02,0.426-0.06,0.594c0.04,0.158,0.06,0.356,0.06,0.594c0,0.228-0.02,0.425-0.06,0.594
	h-0.594c0.04,0.158,0.059,0.356,0.059,0.594c0,0.228-0.02,0.426-0.059,0.594h-2.969c-0.04-0.168-0.059-0.366-0.059-0.594
	c0-0.238,0.02-0.436,0.059-0.594h-0.594c-0.04-0.168-0.059-0.366-0.059-0.594c0-0.238,0.02-0.436,0.059-0.594h1.188
	c0.04,0.158,0.06,0.356,0.06,0.594c0,0.228-0.02,0.425-0.06,0.594h1.782c-0.04-0.168-0.06-0.366-0.06-0.594
	c0-0.238,0.02-0.436,0.06-0.594c-0.04-0.168-0.06-0.366-0.06-0.594c0-0.237,0.02-0.435,0.06-0.594h-1.485
	c-0.04-0.168-0.059-0.366-0.059-0.594c0-0.237,0.02-0.435,0.059-0.594h1.485c-0.04-0.168-0.06-0.366-0.06-0.594
	c0-0.237,0.02-0.436,0.06-0.594c-0.04-0.168-0.06-0.366-0.06-0.594c0-0.238,0.02-0.436,0.06-0.594h-1.782
	c0.04,0.158,0.06,0.356,0.06,0.594c0,0.228-0.02,0.425-0.06,0.594h-1.188c-0.04-0.168-0.059-0.366-0.059-0.594
	c0-0.238,0.02-0.436,0.059-0.594h0.594c-0.04-0.168-0.059-0.366-0.059-0.594c0-0.238,0.02-0.436,0.059-0.594h2.969
	c0.04,0.159,0.059,0.356,0.059,0.594c0,0.228-0.02,0.425-0.059,0.594h0.594c0.04,0.158,0.06,0.356,0.06,0.594
	c0,0.228-0.02,0.425-0.06,0.594c0.04,0.158,0.06,0.356,0.06,0.594C47.74,7.886,47.72,8.085,47.681,8.252z"/>
<path class="st1" d="M11.425,44.325h-0.594c0.04,0.159,0.059,0.356,0.059,0.594c0,0.228-0.02,0.426-0.059,0.594h0.594
	c0.04,0.159,0.06,0.356,0.06,0.594c0,0.228-0.02,0.426-0.06,0.594c0.04,0.158,0.06,0.356,0.06,0.594c0,0.228-0.02,0.425-0.06,0.594
	h-0.594c0.04,0.158,0.059,0.356,0.059,0.594c0,0.228-0.02,0.426-0.059,0.594H7.862c-0.04-0.168-0.059-0.366-0.059-0.594
	c0-0.238,0.02-0.436,0.059-0.594H7.268c-0.04-0.168-0.059-0.366-0.059-0.594c0-0.238,0.02-0.436,0.059-0.594h1.187
	c0.04,0.158,0.06,0.356,0.06,0.594c0,0.228-0.02,0.425-0.06,0.594h1.782c-0.04-0.168-0.06-0.366-0.06-0.594
	c0-0.238,0.02-0.436,0.06-0.594c-0.04-0.168-0.06-0.366-0.06-0.594c0-0.237,0.02-0.435,0.06-0.594H8.753
	c-0.04-0.168-0.059-0.366-0.059-0.594c0-0.237,0.02-0.435,0.059-0.594h1.485c-0.04-0.168-0.06-0.366-0.06-0.594
	c0-0.237,0.02-0.436,0.06-0.594c-0.04-0.168-0.06-0.366-0.06-0.594c0-0.238,0.02-0.436,0.06-0.594H8.456
	c0.04,0.158,0.06,0.356,0.06,0.594c0,0.228-0.02,0.425-0.06,0.594H7.268c-0.04-0.168-0.059-0.366-0.059-0.594
	c0-0.238,0.02-0.436,0.059-0.594h0.594c-0.04-0.168-0.059-0.366-0.059-0.594c0-0.238,0.02-0.436,0.059-0.594h2.969
	c0.04,0.159,0.059,0.356,0.059,0.594c0,0.228-0.02,0.425-0.059,0.594h0.594c0.04,0.158,0.06,0.356,0.06,0.594
	c0,0.228-0.02,0.425-0.06,0.594c0.04,0.158,0.06,0.356,0.06,0.594C11.485,43.958,11.465,44.157,11.425,44.325z"/>
<path class="st1" d="M66.105,10.628h-0.594c0.04,0.158,0.06,0.356,0.06,0.594c0,0.228-0.02,0.425-0.06,0.594
	c0.04,0.158,0.06,0.356,0.06,0.594c0,0.228-0.02,0.426-0.06,0.594h-1.188c-0.04-0.168-0.06-0.366-0.06-0.594
	c0-0.238,0.02-0.436,0.06-0.594c-0.04-0.168-0.06-0.366-0.06-0.594c0-0.238,0.02-0.436,0.06-0.594h-2.969
	c-0.04-0.168-0.059-0.366-0.059-0.594c0-0.237,0.02-0.435,0.059-0.594H61.8c-0.04-0.168-0.059-0.366-0.059-0.594
	c0-0.237,0.02-0.435,0.059-0.594h0.445c-0.04-0.168-0.059-0.366-0.059-0.594c0-0.237,0.02-0.436,0.059-0.594h0.445
	c-0.04-0.168-0.059-0.366-0.059-0.594c0-0.238,0.02-0.436,0.059-0.594h0.743c0.039,0.158,0.059,0.356,0.059,0.594
	c0,0.228-0.02,0.425-0.059,0.594h-0.446c0.04,0.158,0.06,0.356,0.06,0.594c0,0.228-0.02,0.426-0.06,0.594h-0.445
	c0.04,0.159,0.06,0.356,0.06,0.594c0,0.228-0.02,0.426-0.06,0.594h1.782c-0.04-0.168-0.06-0.366-0.06-0.594
	c0-0.237,0.02-0.435,0.06-0.594c-0.04-0.168-0.06-0.366-0.06-0.594c0-0.237,0.02-0.436,0.06-0.594
	c-0.04-0.168-0.06-0.366-0.06-0.594c0-0.238,0.02-0.436,0.06-0.594h-0.891c-0.04-0.168-0.06-0.366-0.06-0.594
	c0-0.238,0.02-0.436,0.06-0.594h2.078c0.04,0.159,0.06,0.356,0.06,0.594c0,0.228-0.02,0.425-0.06,0.594
	c0.04,0.158,0.06,0.356,0.06,0.594c0,0.228-0.02,0.425-0.06,0.594c0.04,0.158,0.06,0.356,0.06,0.594c0,0.228-0.02,0.426-0.06,0.594
	c0.04,0.159,0.06,0.356,0.06,0.594c0,0.228-0.02,0.426-0.06,0.594h0.594c0.04,0.159,0.06,0.356,0.06,0.594
	C66.165,10.262,66.145,10.46,66.105,10.628z"/>
<path class="st1" d="M11.722,64.894h-0.594c0.04,0.158,0.06,0.356,0.06,0.594c0,0.228-0.02,0.425-0.06,0.594
	c0.04,0.158,0.06,0.356,0.06,0.594c0,0.228-0.02,0.426-0.06,0.594H9.941c-0.04-0.168-0.06-0.366-0.06-0.594
	c0-0.238,0.02-0.436,0.06-0.594c-0.04-0.168-0.06-0.366-0.06-0.594c0-0.238,0.02-0.436,0.06-0.594H6.972
	c-0.04-0.168-0.059-0.366-0.059-0.594c0-0.237,0.02-0.435,0.059-0.594h0.445c-0.04-0.168-0.059-0.366-0.059-0.594
	c0-0.237,0.02-0.435,0.059-0.594h0.445c-0.04-0.168-0.059-0.366-0.059-0.594c0-0.237,0.02-0.436,0.059-0.594h0.445
	c-0.04-0.168-0.059-0.366-0.059-0.594c0-0.238,0.02-0.436,0.059-0.594H9.05c0.039,0.158,0.059,0.356,0.059,0.594
	c0,0.228-0.02,0.425-0.059,0.594H8.604c0.04,0.158,0.06,0.356,0.06,0.594c0,0.228-0.02,0.426-0.06,0.594H8.159
	c0.04,0.159,0.06,0.356,0.06,0.594c0,0.228-0.02,0.426-0.06,0.594h1.782c-0.04-0.168-0.06-0.366-0.06-0.594
	c0-0.237,0.02-0.435,0.06-0.594c-0.04-0.168-0.06-0.366-0.06-0.594c0-0.237,0.02-0.436,0.06-0.594
	c-0.04-0.168-0.06-0.366-0.06-0.594c0-0.238,0.02-0.436,0.06-0.594H9.05c-0.04-0.168-0.06-0.366-0.06-0.594
	c0-0.238,0.02-0.436,0.06-0.594h2.078c0.04,0.159,0.06,0.356,0.06,0.594c0,0.228-0.02,0.425-0.06,0.594
	c0.04,0.158,0.06,0.356,0.06,0.594c0,0.228-0.02,0.425-0.06,0.594c0.04,0.158,0.06,0.356,0.06,0.594c0,0.228-0.02,0.426-0.06,0.594
	c0.04,0.159,0.06,0.356,0.06,0.594c0,0.228-0.02,0.426-0.06,0.594h0.594c0.04,0.159,0.06,0.356,0.06,0.594
	C11.782,64.528,11.762,64.725,11.722,64.894z"/>
<path class="st1" d="M80.819,8.252h0.445c0.04,0.159,0.06,0.356,0.06,0.594c0,0.228-0.02,0.426-0.06,0.594h-1.633
	c-0.04-0.168-0.059-0.366-0.059-0.594c0-0.237,0.02-0.435,0.059-0.594c-0.04-0.168-0.059-0.366-0.059-0.594
	c0-0.237,0.02-0.436,0.059-0.594c-0.04-0.168-0.059-0.366-0.059-0.594c0-0.238,0.02-0.436,0.059-0.594
	c-0.04-0.168-0.059-0.366-0.059-0.594c0-0.238,0.02-0.436,0.059-0.594h4.008c0.04,0.159,0.06,0.356,0.06,0.594
	c0,0.228-0.02,0.425-0.06,0.594h-2.821c0.04,0.158,0.06,0.356,0.06,0.594c0,0.228-0.02,0.425-0.06,0.594
	c0.04,0.158,0.06,0.356,0.06,0.594C80.878,7.886,80.858,8.085,80.819,8.252z M84.085,10.628h-0.445
	c0.04,0.158,0.06,0.356,0.06,0.594c0,0.228-0.02,0.425-0.06,0.594h-0.742c0.04,0.158,0.059,0.356,0.059,0.594
	c0,0.228-0.02,0.426-0.059,0.594h-2.672c-0.04-0.168-0.059-0.366-0.059-0.594c0-0.238,0.02-0.436,0.059-0.594h-0.594
	c-0.04-0.168-0.059-0.366-0.059-0.594c0-0.238,0.02-0.436,0.059-0.594h0.891c0.04,0.158,0.06,0.356,0.06,0.594
	c0,0.228-0.02,0.425-0.06,0.594h1.93c-0.04-0.168-0.06-0.366-0.06-0.594c0-0.238,0.02-0.436,0.06-0.594h0.445
	c-0.04-0.168-0.06-0.366-0.06-0.594c0-0.237,0.02-0.435,0.06-0.594h-0.445c-0.04-0.168-0.06-0.366-0.06-0.594
	c0-0.237,0.02-0.435,0.06-0.594h-1.188c-0.04-0.168-0.059-0.366-0.059-0.594c0-0.237,0.02-0.436,0.059-0.594h1.633
	c0.04,0.158,0.059,0.356,0.059,0.594c0,0.228-0.02,0.426-0.059,0.594h0.742c0.04,0.159,0.06,0.356,0.06,0.594
	c0,0.228-0.02,0.426-0.06,0.594h0.445c0.04,0.159,0.06,0.356,0.06,0.594C84.144,10.262,84.124,10.46,84.085,10.628z"/>
<path class="st1" d="M8.307,80.712h0.445c0.04,0.159,0.06,0.356,0.06,0.594c0,0.228-0.02,0.426-0.06,0.594H7.12
	c-0.04-0.168-0.059-0.366-0.059-0.594c0-0.237,0.02-0.435,0.059-0.594c-0.04-0.168-0.059-0.366-0.059-0.594
	c0-0.237,0.02-0.436,0.059-0.594c-0.04-0.168-0.059-0.366-0.059-0.594c0-0.238,0.02-0.436,0.059-0.594
	c-0.04-0.168-0.059-0.366-0.059-0.594c0-0.238,0.02-0.436,0.059-0.594h4.008c0.04,0.159,0.06,0.356,0.06,0.594
	c0,0.228-0.02,0.425-0.06,0.594H8.307c0.04,0.158,0.06,0.356,0.06,0.594c0,0.228-0.02,0.425-0.06,0.594
	c0.04,0.158,0.06,0.356,0.06,0.594C8.367,80.346,8.347,80.544,8.307,80.712z M11.574,83.088h-0.445
	c0.04,0.158,0.06,0.356,0.06,0.594c0,0.228-0.02,0.425-0.06,0.594h-0.742c0.04,0.158,0.059,0.356,0.059,0.594
	c0,0.228-0.02,0.426-0.059,0.594H7.714c-0.04-0.168-0.059-0.366-0.059-0.594c0-0.238,0.02-0.436,0.059-0.594H7.12
	c-0.04-0.168-0.059-0.366-0.059-0.594c0-0.238,0.02-0.436,0.059-0.594h0.891c0.04,0.158,0.06,0.356,0.06,0.594
	c0,0.228-0.02,0.425-0.06,0.594h1.93c-0.04-0.168-0.06-0.366-0.06-0.594c0-0.238,0.02-0.436,0.06-0.594h0.445
	c-0.04-0.168-0.06-0.366-0.06-0.594c0-0.237,0.02-0.435,0.06-0.594H9.941c-0.04-0.168-0.06-0.366-0.06-0.594
	c0-0.237,0.02-0.435,0.06-0.594H8.753c-0.04-0.168-0.059-0.366-0.059-0.594c0-0.237,0.02-0.436,0.059-0.594h1.633
	c0.04,0.158,0.059,0.356,0.059,0.594c0,0.228-0.02,0.426-0.059,0.594h0.742c0.04,0.159,0.06,0.356,0.06,0.594
	c0,0.228-0.02,0.426-0.06,0.594h0.445c0.04,0.159,0.06,0.356,0.06,0.594C11.633,82.721,11.613,82.919,11.574,83.088z"/>
<path class="st1" d="M99.526,11.222c0,0.228-0.02,0.425-0.06,0.594h-1.188c-0.04-0.168-0.059-0.366-0.059-0.594
	c0-0.238,0.02-0.436,0.059-0.594h-0.445c-0.04-0.168-0.059-0.366-0.059-0.594c0-0.237,0.02-0.435,0.059-0.594
	c-0.04-0.168-0.059-0.366-0.059-0.594c0-0.237,0.02-0.435,0.059-0.594c-0.04-0.168-0.059-0.366-0.059-0.594
	c0-0.237,0.02-0.436,0.059-0.594h0.445c-0.04-0.168-0.059-0.366-0.059-0.594c0-0.238,0.02-0.436,0.059-0.594h1.188
	c0.04,0.158,0.06,0.356,0.06,0.594c0,0.228-0.02,0.425-0.06,0.594h-0.445c0.04,0.158,0.06,0.356,0.06,0.594
	c0,0.228-0.02,0.426-0.06,0.594c0.04,0.159,0.06,0.356,0.06,0.594c0,0.228-0.02,0.426-0.06,0.594h0.445
	c0.04,0.159,0.06,0.356,0.06,0.594c0,0.228-0.02,0.426-0.06,0.594C99.506,10.786,99.526,10.984,99.526,11.222z M101.545,5.877
	h-2.079c-0.04-0.168-0.059-0.366-0.059-0.594c0-0.238,0.02-0.436,0.059-0.594h2.079c0.04,0.159,0.059,0.356,0.059,0.594
	C101.604,5.511,101.584,5.709,101.545,5.877z M102.138,10.628c0.04,0.158,0.06,0.356,0.06,0.594c0,0.228-0.02,0.425-0.06,0.594
	h-0.891c0.04,0.158,0.059,0.356,0.059,0.594c0,0.228-0.02,0.426-0.059,0.594h-1.782c-0.04-0.168-0.059-0.366-0.059-0.594
	c0-0.238,0.02-0.436,0.059-0.594h1.485c-0.04-0.168-0.06-0.366-0.06-0.594c0-0.238,0.02-0.436,0.06-0.594
	c-0.04-0.168-0.06-0.366-0.06-0.594c0-0.237,0.02-0.435,0.06-0.594h-1.485c-0.04-0.168-0.059-0.366-0.059-0.594
	c0-0.237,0.02-0.435,0.059-0.594h2.079c0.04,0.159,0.059,0.356,0.059,0.594c0,0.228-0.02,0.426-0.059,0.594h0.594
	c0.04,0.159,0.06,0.356,0.06,0.594C102.198,10.262,102.178,10.46,102.138,10.628z"/>
<path class="st1" d="M8.887,101.875c0,0.228-0.02,0.425-0.06,0.594H7.639c-0.04-0.168-0.059-0.366-0.059-0.594
	c0-0.238,0.02-0.436,0.059-0.594H7.194c-0.04-0.168-0.059-0.366-0.059-0.594c0-0.237,0.02-0.435,0.059-0.594
	c-0.04-0.168-0.059-0.366-0.059-0.594c0-0.237,0.02-0.435,0.059-0.594c-0.04-0.168-0.059-0.366-0.059-0.594
	c0-0.237,0.02-0.436,0.059-0.594h0.445C7.6,97.55,7.58,97.352,7.58,97.125c0-0.238,0.02-0.436,0.059-0.594h1.187
	c0.04,0.158,0.06,0.356,0.06,0.594c0,0.228-0.02,0.425-0.06,0.594H8.382c0.04,0.158,0.06,0.356,0.06,0.594
	c0,0.228-0.02,0.426-0.06,0.594c0.04,0.159,0.06,0.356,0.06,0.594c0,0.228-0.02,0.426-0.06,0.594h0.445
	c0.04,0.159,0.06,0.356,0.06,0.594c0,0.228-0.02,0.426-0.06,0.594C8.867,101.439,8.887,101.637,8.887,101.875z M10.906,96.531H8.827
	c-0.04-0.168-0.059-0.366-0.059-0.594c0-0.238,0.02-0.436,0.059-0.594h2.079c0.04,0.159,0.059,0.356,0.059,0.594
	C10.965,96.165,10.945,96.362,10.906,96.531z M11.499,101.281c0.04,0.158,0.06,0.356,0.06,0.594c0,0.228-0.02,0.425-0.06,0.594
	h-0.891c0.04,0.158,0.059,0.356,0.059,0.594c0,0.228-0.02,0.426-0.059,0.594H8.827c-0.04-0.168-0.059-0.366-0.059-0.594
	c0-0.238,0.02-0.436,0.059-0.594h1.485c-0.04-0.168-0.06-0.366-0.06-0.594c0-0.238,0.02-0.436,0.06-0.594
	c-0.04-0.168-0.06-0.366-0.06-0.594c0-0.237,0.02-0.435,0.06-0.594H8.827c-0.04-0.168-0.059-0.366-0.059-0.594
	c0-0.237,0.02-0.435,0.059-0.594h2.079c0.04,0.159,0.059,0.356,0.059,0.594c0,0.228-0.02,0.426-0.059,0.594h0.594
	c0.04,0.159,0.06,0.356,0.06,0.594C11.559,100.915,11.539,101.113,11.499,101.281z"/>
<path class="st1" d="M120.192,5.877c0.04,0.158,0.06,0.356,0.06,0.594c0,0.228-0.02,0.425-0.06,0.594h-0.445
	c0.04,0.158,0.059,0.356,0.059,0.594c0,0.228-0.02,0.426-0.059,0.594h-0.445c0.04,0.159,0.059,0.356,0.059,0.594
	c0,0.228-0.02,0.426-0.059,0.594h-0.445c0.039,0.159,0.059,0.356,0.059,0.594c0,0.228-0.02,0.426-0.059,0.594h-0.445
	c0.039,0.158,0.059,0.356,0.059,0.594c0,0.228-0.02,0.425-0.059,0.594h-0.445c0.039,0.158,0.059,0.356,0.059,0.594
	c0,0.228-0.02,0.426-0.059,0.594h-1.188c-0.04-0.168-0.059-0.366-0.059-0.594c0-0.238,0.02-0.436,0.059-0.594h0.445
	c-0.04-0.168-0.059-0.366-0.059-0.594c0-0.238,0.02-0.436,0.059-0.594h0.445c-0.04-0.168-0.059-0.366-0.059-0.594
	c0-0.237,0.02-0.435,0.059-0.594h0.446c-0.04-0.168-0.06-0.366-0.06-0.594c0-0.237,0.02-0.435,0.06-0.594h0.445
	c-0.04-0.168-0.06-0.366-0.06-0.594c0-0.237,0.02-0.436,0.06-0.594h0.445c-0.04-0.168-0.06-0.366-0.06-0.594
	c0-0.238,0.02-0.436,0.06-0.594h-2.969c-0.04-0.168-0.059-0.366-0.059-0.594c0-0.238,0.02-0.436,0.059-0.594h4.157
	c0.04,0.159,0.06,0.356,0.06,0.594C120.251,5.511,120.231,5.709,120.192,5.877z"/>
<path class="st1" d="M11.425,114.725c0.04,0.158,0.06,0.356,0.06,0.594c0,0.228-0.02,0.425-0.06,0.594H10.98
	c0.04,0.158,0.059,0.356,0.059,0.594c0,0.228-0.02,0.426-0.059,0.594h-0.445c0.04,0.159,0.059,0.356,0.059,0.594
	c0,0.228-0.02,0.426-0.059,0.594h-0.445c0.039,0.159,0.059,0.356,0.059,0.594c0,0.228-0.02,0.426-0.059,0.594H9.644
	c0.039,0.158,0.059,0.356,0.059,0.594c0,0.228-0.02,0.425-0.059,0.594H9.199c0.039,0.158,0.059,0.356,0.059,0.594
	c0,0.228-0.02,0.426-0.059,0.594H8.011c-0.04-0.168-0.059-0.366-0.059-0.594c0-0.238,0.02-0.436,0.059-0.594h0.445
	c-0.04-0.168-0.059-0.366-0.059-0.594c0-0.238,0.02-0.436,0.059-0.594h0.445c-0.04-0.168-0.059-0.366-0.059-0.594
	c0-0.237,0.02-0.435,0.059-0.594h0.446c-0.04-0.168-0.06-0.366-0.06-0.594c0-0.237,0.02-0.435,0.06-0.594h0.445
	c-0.04-0.168-0.06-0.366-0.06-0.594c0-0.237,0.02-0.436,0.06-0.594h0.445c-0.04-0.168-0.06-0.366-0.06-0.594
	c0-0.238,0.02-0.436,0.06-0.594H7.268c-0.04-0.168-0.059-0.366-0.059-0.594c0-0.238,0.02-0.436,0.059-0.594h4.157
	c0.04,0.159,0.06,0.356,0.06,0.594C11.485,114.358,11.465,114.556,11.425,114.725z"/>
<path class="st1" d="M138.171,8.252h-0.742c0.04,0.159,0.059,0.356,0.059,0.594c0,0.228-0.02,0.426-0.059,0.594h0.742
	c0.04,0.159,0.06,0.356,0.06,0.594c0,0.228-0.02,0.426-0.06,0.594c0.04,0.158,0.06,0.356,0.06,0.594c0,0.228-0.02,0.425-0.06,0.594
	h-0.742c0.04,0.158,0.059,0.356,0.059,0.594c0,0.228-0.02,0.426-0.059,0.594h-2.375c-0.04-0.168-0.059-0.366-0.059-0.594
	c0-0.238,0.02-0.436,0.059-0.594h-0.742c-0.04-0.168-0.059-0.366-0.059-0.594c0-0.238,0.02-0.436,0.059-0.594
	c-0.04-0.168-0.059-0.366-0.059-0.594c0-0.237,0.02-0.435,0.059-0.594h0.742c-0.04-0.168-0.059-0.366-0.059-0.594
	c0-0.237,0.02-0.435,0.059-0.594h-0.742c-0.04-0.168-0.059-0.366-0.059-0.594c0-0.237,0.02-0.436,0.059-0.594
	c-0.04-0.168-0.059-0.366-0.059-0.594c0-0.238,0.02-0.436,0.059-0.594h0.742c-0.04-0.168-0.059-0.366-0.059-0.594
	c0-0.238,0.02-0.436,0.059-0.594h2.375c0.04,0.159,0.059,0.356,0.059,0.594c0,0.228-0.02,0.425-0.059,0.594h0.742
	c0.04,0.158,0.06,0.356,0.06,0.594c0,0.228-0.02,0.425-0.06,0.594c0.04,0.158,0.06,0.356,0.06,0.594
	C138.231,7.886,138.211,8.085,138.171,8.252z M136.924,7.659c0-0.237,0.02-0.436,0.06-0.594c-0.04-0.168-0.06-0.366-0.06-0.594
	c0-0.238,0.02-0.436,0.06-0.594h-1.485c0.04,0.158,0.06,0.356,0.06,0.594c0,0.228-0.02,0.425-0.06,0.594
	c0.04,0.158,0.06,0.356,0.06,0.594c0,0.228-0.02,0.426-0.06,0.594h1.485C136.944,8.085,136.924,7.886,136.924,7.659z
	 M136.924,10.034c0-0.237,0.02-0.435,0.06-0.594h-1.485c0.04,0.159,0.06,0.356,0.06,0.594c0,0.228-0.02,0.426-0.06,0.594
	c0.04,0.158,0.06,0.356,0.06,0.594c0,0.228-0.02,0.425-0.06,0.594h1.485c-0.04-0.168-0.06-0.366-0.06-0.594
	c0-0.238,0.02-0.436,0.06-0.594C136.944,10.46,136.924,10.262,136.924,10.034z"/>
<path class="st1" d="M11.277,135.293h-0.742c0.04,0.159,0.059,0.356,0.059,0.594c0,0.228-0.02,0.426-0.059,0.594h0.742
	c0.04,0.159,0.06,0.356,0.06,0.594c0,0.228-0.02,0.426-0.06,0.594c0.04,0.158,0.06,0.356,0.06,0.594c0,0.228-0.02,0.425-0.06,0.594
	h-0.742c0.04,0.158,0.059,0.356,0.059,0.594c0,0.228-0.02,0.426-0.059,0.594H8.159c-0.04-0.168-0.059-0.366-0.059-0.594
	c0-0.238,0.02-0.436,0.059-0.594H7.417c-0.04-0.168-0.059-0.366-0.059-0.594c0-0.238,0.02-0.436,0.059-0.594
	c-0.04-0.168-0.059-0.366-0.059-0.594c0-0.237,0.02-0.435,0.059-0.594h0.742c-0.04-0.168-0.059-0.366-0.059-0.594
	c0-0.237,0.02-0.435,0.059-0.594H7.417c-0.04-0.168-0.059-0.366-0.059-0.594c0-0.237,0.02-0.436,0.059-0.594
	c-0.04-0.168-0.059-0.366-0.059-0.594c0-0.238,0.02-0.436,0.059-0.594h0.742c-0.04-0.168-0.059-0.366-0.059-0.594
	c0-0.238,0.02-0.436,0.059-0.594h2.375c0.04,0.159,0.059,0.356,0.059,0.594c0,0.228-0.02,0.425-0.059,0.594h0.742
	c0.04,0.158,0.06,0.356,0.06,0.594c0,0.228-0.02,0.425-0.06,0.594c0.04,0.158,0.06,0.356,0.06,0.594
	C11.336,134.927,11.316,135.125,11.277,135.293z M10.03,134.7c0-0.237,0.02-0.436,0.06-0.594c-0.04-0.168-0.06-0.366-0.06-0.594
	c0-0.238,0.02-0.436,0.06-0.594H8.604c0.04,0.158,0.06,0.356,0.06,0.594c0,0.228-0.02,0.425-0.06,0.594
	c0.04,0.158,0.06,0.356,0.06,0.594c0,0.228-0.02,0.426-0.06,0.594h1.485C10.049,135.125,10.03,134.927,10.03,134.7z M10.03,137.075
	c0-0.237,0.02-0.435,0.06-0.594H8.604c0.04,0.159,0.06,0.356,0.06,0.594c0,0.228-0.02,0.426-0.06,0.594
	c0.04,0.158,0.06,0.356,0.06,0.594c0,0.228-0.02,0.425-0.06,0.594h1.485c-0.04-0.168-0.06-0.366-0.06-0.594
	c0-0.238,0.02-0.436,0.06-0.594C10.049,137.5,10.03,137.303,10.03,137.075z"/>
<path class="st1" d="M153.404,8.252h1.485c0.039,0.159,0.059,0.356,0.059,0.594c0,0.228-0.02,0.426-0.059,0.594h-2.079
	c-0.04-0.168-0.059-0.366-0.059-0.594c0-0.237,0.02-0.435,0.059-0.594h-0.594c-0.04-0.168-0.059-0.366-0.059-0.594
	c0-0.237,0.02-0.436,0.059-0.594c-0.04-0.168-0.059-0.366-0.059-0.594c0-0.238,0.02-0.436,0.059-0.594h0.891
	c-0.04-0.168-0.059-0.366-0.059-0.594c0-0.238,0.02-0.436,0.059-0.594h1.782c0.039,0.159,0.059,0.356,0.059,0.594
	c0,0.228-0.02,0.425-0.059,0.594h-1.485c0.04,0.158,0.06,0.356,0.06,0.594c0,0.228-0.02,0.425-0.06,0.594
	c0.04,0.158,0.06,0.356,0.06,0.594C153.464,7.886,153.444,8.085,153.404,8.252z M152.81,11.815h2.079
	c0.039,0.158,0.059,0.356,0.059,0.594c0,0.228-0.02,0.426-0.059,0.594h-2.079c-0.04-0.168-0.059-0.366-0.059-0.594
	C152.751,12.171,152.771,11.974,152.81,11.815z M156.581,8.846c0,0.228-0.02,0.426-0.06,0.594c0.04,0.159,0.06,0.356,0.06,0.594
	c0,0.228-0.02,0.426-0.06,0.594h-0.445c0.04,0.158,0.06,0.356,0.06,0.594c0,0.228-0.02,0.425-0.06,0.594h-1.188
	c-0.04-0.168-0.06-0.366-0.06-0.594c0-0.238,0.02-0.436,0.06-0.594h0.445c-0.04-0.168-0.06-0.366-0.06-0.594
	c0-0.237,0.02-0.435,0.06-0.594c-0.04-0.168-0.06-0.366-0.06-0.594c0-0.237,0.02-0.435,0.06-0.594h-0.445
	c-0.04-0.168-0.06-0.366-0.06-0.594c0-0.237,0.02-0.436,0.06-0.594c-0.04-0.168-0.06-0.366-0.06-0.594
	c0-0.238,0.02-0.436,0.06-0.594h1.188c0.04,0.158,0.06,0.356,0.06,0.594c0,0.228-0.02,0.425-0.06,0.594h0.445
	c0.04,0.158,0.06,0.356,0.06,0.594c0,0.228-0.02,0.426-0.06,0.594C156.561,8.411,156.581,8.609,156.581,8.846z"/>
<path class="st1" d="M8.382,153.487h1.485c0.039,0.159,0.059,0.356,0.059,0.594c0,0.228-0.02,0.426-0.059,0.594H7.788
	c-0.04-0.168-0.059-0.366-0.059-0.594c0-0.237,0.02-0.435,0.059-0.594H7.194c-0.04-0.168-0.059-0.366-0.059-0.594
	c0-0.237,0.02-0.436,0.059-0.594c-0.04-0.168-0.059-0.366-0.059-0.594c0-0.238,0.02-0.436,0.059-0.594h0.891
	c-0.04-0.168-0.059-0.366-0.059-0.594c0-0.238,0.02-0.436,0.059-0.594h1.782c0.039,0.159,0.059,0.356,0.059,0.594
	c0,0.228-0.02,0.425-0.059,0.594H8.382c0.04,0.158,0.06,0.356,0.06,0.594c0,0.228-0.02,0.425-0.06,0.594
	c0.04,0.158,0.06,0.356,0.06,0.594C8.441,153.121,8.421,153.319,8.382,153.487z M7.788,157.05h2.079
	c0.039,0.158,0.059,0.356,0.059,0.594c0,0.228-0.02,0.426-0.059,0.594H7.788c-0.04-0.168-0.059-0.366-0.059-0.594
	C7.729,157.406,7.748,157.208,7.788,157.05z M11.559,154.081c0,0.228-0.02,0.426-0.06,0.594c0.04,0.159,0.06,0.356,0.06,0.594
	c0,0.228-0.02,0.426-0.06,0.594h-0.445c0.04,0.158,0.06,0.356,0.06,0.594c0,0.228-0.02,0.425-0.06,0.594H9.867
	c-0.04-0.168-0.06-0.366-0.06-0.594c0-0.238,0.02-0.436,0.06-0.594h0.445c-0.04-0.168-0.06-0.366-0.06-0.594
	c0-0.237,0.02-0.435,0.06-0.594c-0.04-0.168-0.06-0.366-0.06-0.594c0-0.237,0.02-0.435,0.06-0.594H9.867
	c-0.04-0.168-0.06-0.366-0.06-0.594c0-0.237,0.02-0.436,0.06-0.594c-0.04-0.168-0.06-0.366-0.06-0.594
	c0-0.238,0.02-0.436,0.06-0.594h1.188c0.04,0.158,0.06,0.356,0.06,0.594c0,0.228-0.02,0.425-0.06,0.594h0.445
	c0.04,0.158,0.06,0.356,0.06,0.594c0,0.228-0.02,0.426-0.06,0.594C11.539,153.646,11.559,153.843,11.559,154.081z"/>
<g>
	<path class="st1" d="M171.295,12.409c0,0.228-0.02,0.426-0.06,0.594h-3.562c-0.04-0.168-0.06-0.366-0.06-0.594
		c0-0.238,0.02-0.436,0.06-0.594h1.188c-0.039-0.168-0.06-0.366-0.06-0.594c0-0.238,0.021-0.436,0.06-0.594
		c-0.039-0.168-0.06-0.366-0.06-0.594c0-0.237,0.021-0.435,0.06-0.594c-0.039-0.168-0.06-0.366-0.06-0.594
		c0-0.237,0.021-0.435,0.06-0.594c-0.039-0.168-0.06-0.366-0.06-0.594c0-0.237,0.021-0.436,0.06-0.594h-0.891
		c-0.039-0.168-0.06-0.366-0.06-0.594c0-0.238,0.021-0.436,0.06-0.594h0.891c-0.039-0.168-0.06-0.366-0.06-0.594
		c0-0.238,0.021-0.436,0.06-0.594h1.188c0.04,0.159,0.06,0.356,0.06,0.594c0,0.228-0.02,0.425-0.06,0.594
		c0.04,0.158,0.06,0.356,0.06,0.594c0,0.228-0.02,0.425-0.06,0.594c0.04,0.158,0.06,0.356,0.06,0.594c0,0.228-0.02,0.426-0.06,0.594
		c0.04,0.159,0.06,0.356,0.06,0.594c0,0.228-0.02,0.426-0.06,0.594c0.04,0.159,0.06,0.356,0.06,0.594c0,0.228-0.02,0.426-0.06,0.594
		c0.04,0.158,0.06,0.356,0.06,0.594c0,0.228-0.02,0.425-0.06,0.594h1.188C171.276,11.974,171.295,12.171,171.295,12.409z"/>
	<path class="st1" d="M174.709,11.222c0,0.228-0.02,0.425-0.06,0.594h-0.742c-0.039-0.168-0.06-0.366-0.06-0.594
		c0-0.238,0.021-0.436,0.06-0.594h-0.445c-0.04-0.168-0.06-0.366-0.06-0.594c0-0.237,0.02-0.435,0.06-0.594
		c-0.04-0.168-0.06-0.366-0.06-0.594c0-0.237,0.02-0.435,0.06-0.594c-0.04-0.168-0.06-0.366-0.06-0.594
		c0-0.237,0.02-0.436,0.06-0.594h0.445c-0.039-0.168-0.06-0.366-0.06-0.594c0-0.238,0.021-0.436,0.06-0.594h0.742
		c0.04,0.158,0.06,0.356,0.06,0.594c0,0.228-0.02,0.425-0.06,0.594c0.04,0.158,0.06,0.356,0.06,0.594c0,0.228-0.02,0.426-0.06,0.594
		c0.04,0.159,0.06,0.356,0.06,0.594c0,0.228-0.02,0.426-0.06,0.594c0.04,0.159,0.06,0.356,0.06,0.594c0,0.228-0.02,0.426-0.06,0.594
		C174.69,10.786,174.709,10.984,174.709,11.222z M176.134,5.877h-1.484c-0.039-0.168-0.06-0.366-0.06-0.594
		c0-0.238,0.021-0.436,0.06-0.594h1.484c0.04,0.159,0.06,0.356,0.06,0.594C176.193,5.511,176.174,5.709,176.134,5.877z
		 M174.65,11.815h1.484c0.04,0.158,0.06,0.356,0.06,0.594c0,0.228-0.02,0.426-0.06,0.594h-1.484c-0.039-0.168-0.06-0.366-0.06-0.594
		C174.59,12.171,174.61,11.974,174.65,11.815z M177.381,8.846c0,0.228-0.02,0.426-0.06,0.594c0.04,0.159,0.06,0.356,0.06,0.594
		c0,0.228-0.02,0.426-0.06,0.594h-0.445c0.04,0.158,0.06,0.356,0.06,0.594c0,0.228-0.02,0.425-0.06,0.594h-0.742
		c-0.039-0.168-0.059-0.366-0.059-0.594c0-0.238,0.02-0.436,0.059-0.594c-0.039-0.168-0.059-0.366-0.059-0.594
		c0-0.237,0.02-0.435,0.059-0.594c-0.039-0.168-0.059-0.366-0.059-0.594c0-0.237,0.02-0.435,0.059-0.594
		c-0.039-0.168-0.059-0.366-0.059-0.594c0-0.237,0.02-0.436,0.059-0.594c-0.039-0.168-0.059-0.366-0.059-0.594
		c0-0.238,0.02-0.436,0.059-0.594h0.742c0.04,0.158,0.06,0.356,0.06,0.594c0,0.228-0.02,0.425-0.06,0.594h0.445
		c0.04,0.158,0.06,0.356,0.06,0.594c0,0.228-0.02,0.426-0.06,0.594C177.361,8.411,177.381,8.609,177.381,8.846z"/>
</g>
<g>
	<path class="st1" d="M8.145,175.837c0,0.228-0.02,0.426-0.06,0.594H4.523c-0.04-0.168-0.06-0.366-0.06-0.594
		c0-0.238,0.02-0.436,0.06-0.594H5.71c-0.039-0.168-0.06-0.366-0.06-0.594c0-0.238,0.021-0.436,0.06-0.594
		c-0.039-0.168-0.06-0.366-0.06-0.594c0-0.237,0.021-0.435,0.06-0.594c-0.039-0.168-0.06-0.366-0.06-0.594
		c0-0.237,0.021-0.435,0.06-0.594c-0.039-0.168-0.06-0.366-0.06-0.594c0-0.237,0.021-0.436,0.06-0.594H4.82
		c-0.039-0.168-0.06-0.366-0.06-0.594c0-0.238,0.021-0.436,0.06-0.594H5.71c-0.039-0.168-0.06-0.366-0.06-0.594
		c0-0.238,0.021-0.436,0.06-0.594h1.188c0.04,0.159,0.06,0.356,0.06,0.594c0,0.228-0.02,0.425-0.06,0.594
		c0.04,0.158,0.06,0.356,0.06,0.594c0,0.228-0.02,0.425-0.06,0.594c0.04,0.158,0.06,0.356,0.06,0.594c0,0.228-0.02,0.426-0.06,0.594
		c0.04,0.159,0.06,0.356,0.06,0.594c0,0.228-0.02,0.426-0.06,0.594c0.04,0.159,0.06,0.356,0.06,0.594c0,0.228-0.02,0.426-0.06,0.594
		c0.04,0.158,0.06,0.356,0.06,0.594c0,0.228-0.02,0.425-0.06,0.594h1.187C8.125,175.402,8.145,175.6,8.145,175.837z"/>
	<path class="st1" d="M11.559,174.65c0,0.228-0.02,0.425-0.06,0.594h-0.742c-0.039-0.168-0.06-0.366-0.06-0.594
		c0-0.238,0.021-0.436,0.06-0.594h-0.445c-0.04-0.168-0.06-0.366-0.06-0.594c0-0.237,0.02-0.435,0.06-0.594
		c-0.04-0.168-0.06-0.366-0.06-0.594c0-0.237,0.02-0.435,0.06-0.594c-0.04-0.168-0.06-0.366-0.06-0.594
		c0-0.237,0.02-0.436,0.06-0.594h0.445c-0.039-0.168-0.06-0.366-0.06-0.594c0-0.238,0.021-0.436,0.06-0.594h0.742
		c0.04,0.158,0.06,0.356,0.06,0.594c0,0.228-0.02,0.425-0.06,0.594c0.04,0.158,0.06,0.356,0.06,0.594c0,0.228-0.02,0.426-0.06,0.594
		c0.04,0.159,0.06,0.356,0.06,0.594c0,0.228-0.02,0.426-0.06,0.594c0.04,0.159,0.06,0.356,0.06,0.594c0,0.228-0.02,0.426-0.06,0.594
		C11.539,174.214,11.559,174.412,11.559,174.65z M12.984,169.306h-1.484c-0.039-0.168-0.06-0.366-0.06-0.594
		c0-0.238,0.021-0.436,0.06-0.594h1.484c0.04,0.159,0.06,0.356,0.06,0.594C13.043,168.94,13.024,169.137,12.984,169.306z
		 M11.499,175.244h1.484c0.04,0.158,0.06,0.356,0.06,0.594c0,0.228-0.02,0.426-0.06,0.594h-1.484
		c-0.039-0.168-0.06-0.366-0.06-0.594C11.44,175.6,11.46,175.402,11.499,175.244z M14.231,172.275c0,0.228-0.02,0.426-0.06,0.594
		c0.04,0.159,0.06,0.356,0.06,0.594c0,0.228-0.02,0.426-0.06,0.594h-0.445c0.04,0.158,0.06,0.356,0.06,0.594
		c0,0.228-0.02,0.425-0.06,0.594h-0.742c-0.039-0.168-0.059-0.366-0.059-0.594c0-0.238,0.02-0.436,0.059-0.594
		c-0.039-0.168-0.059-0.366-0.059-0.594c0-0.237,0.02-0.435,0.059-0.594c-0.039-0.168-0.059-0.366-0.059-0.594
		c0-0.237,0.02-0.435,0.059-0.594c-0.039-0.168-0.059-0.366-0.059-0.594c0-0.237,0.02-0.436,0.059-0.594
		c-0.039-0.168-0.059-0.366-0.059-0.594c0-0.238,0.02-0.436,0.059-0.594h0.742c0.04,0.158,0.06,0.356,0.06,0.594
		c0,0.228-0.02,0.425-0.06,0.594h0.445c0.04,0.158,0.06,0.356,0.06,0.594c0,0.228-0.02,0.426-0.06,0.594
		C14.211,171.839,14.231,172.037,14.231,172.275z"/>
</g>
<g>
	<path class="st1" d="M189.497,12.409c0,0.228-0.02,0.426-0.06,0.594h-3.562c-0.04-0.168-0.06-0.366-0.06-0.594
		c0-0.238,0.02-0.436,0.06-0.594h1.188c-0.039-0.168-0.06-0.366-0.06-0.594c0-0.238,0.021-0.436,0.06-0.594
		c-0.039-0.168-0.06-0.366-0.06-0.594c0-0.237,0.021-0.435,0.06-0.594c-0.039-0.168-0.06-0.366-0.06-0.594
		c0-0.237,0.021-0.435,0.06-0.594c-0.039-0.168-0.06-0.366-0.06-0.594c0-0.237,0.021-0.436,0.06-0.594h-0.891
		c-0.039-0.168-0.06-0.366-0.06-0.594c0-0.238,0.021-0.436,0.06-0.594h0.891c-0.039-0.168-0.06-0.366-0.06-0.594
		c0-0.238,0.021-0.436,0.06-0.594h1.188c0.04,0.159,0.06,0.356,0.06,0.594c0,0.228-0.02,0.425-0.06,0.594
		c0.04,0.158,0.06,0.356,0.06,0.594c0,0.228-0.02,0.425-0.06,0.594c0.04,0.158,0.06,0.356,0.06,0.594c0,0.228-0.02,0.426-0.06,0.594
		c0.04,0.159,0.06,0.356,0.06,0.594c0,0.228-0.02,0.426-0.06,0.594c0.04,0.159,0.06,0.356,0.06,0.594c0,0.228-0.02,0.426-0.06,0.594
		c0.04,0.158,0.06,0.356,0.06,0.594c0,0.228-0.02,0.425-0.06,0.594h1.188C189.478,11.974,189.497,12.171,189.497,12.409z"/>
	<path class="st1" d="M195.435,12.409c0,0.228-0.02,0.426-0.06,0.594h-3.562c-0.04-0.168-0.06-0.366-0.06-0.594
		c0-0.238,0.02-0.436,0.06-0.594H193c-0.039-0.168-0.06-0.366-0.06-0.594c0-0.238,0.021-0.436,0.06-0.594
		c-0.039-0.168-0.06-0.366-0.06-0.594c0-0.237,0.021-0.435,0.06-0.594c-0.039-0.168-0.06-0.366-0.06-0.594
		c0-0.237,0.021-0.435,0.06-0.594c-0.039-0.168-0.06-0.366-0.06-0.594c0-0.237,0.021-0.436,0.06-0.594h-0.891
		c-0.039-0.168-0.06-0.366-0.06-0.594c0-0.238,0.021-0.436,0.06-0.594H193c-0.039-0.168-0.06-0.366-0.06-0.594
		c0-0.238,0.021-0.436,0.06-0.594h1.188c0.04,0.159,0.06,0.356,0.06,0.594c0,0.228-0.02,0.425-0.06,0.594
		c0.04,0.158,0.06,0.356,0.06,0.594c0,0.228-0.02,0.425-0.06,0.594c0.04,0.158,0.06,0.356,0.06,0.594c0,0.228-0.02,0.426-0.06,0.594
		c0.04,0.159,0.06,0.356,0.06,0.594c0,0.228-0.02,0.426-0.06,0.594c0.04,0.159,0.06,0.356,0.06,0.594c0,0.228-0.02,0.426-0.06,0.594
		c0.04,0.158,0.06,0.356,0.06,0.594c0,0.228-0.02,0.425-0.06,0.594h1.188C195.415,11.974,195.435,12.171,195.435,12.409z"/>
</g>
<g>
	<path class="st1" d="M8.219,194.031c0,0.228-0.02,0.426-0.06,0.594H4.597c-0.04-0.168-0.06-0.366-0.06-0.594
		c0-0.238,0.02-0.436,0.06-0.594h1.188c-0.039-0.168-0.06-0.366-0.06-0.594c0-0.238,0.021-0.436,0.06-0.594
		c-0.039-0.168-0.06-0.366-0.06-0.594c0-0.237,0.021-0.435,0.06-0.594c-0.039-0.168-0.06-0.366-0.06-0.594
		c0-0.237,0.021-0.435,0.06-0.594c-0.039-0.168-0.06-0.366-0.06-0.594c0-0.237,0.021-0.436,0.06-0.594H4.894
		c-0.039-0.168-0.06-0.366-0.06-0.594c0-0.238,0.021-0.436,0.06-0.594h0.891c-0.039-0.168-0.06-0.366-0.06-0.594
		c0-0.238,0.021-0.436,0.06-0.594h1.188c0.04,0.159,0.06,0.356,0.06,0.594c0,0.228-0.02,0.425-0.06,0.594
		c0.04,0.158,0.06,0.356,0.06,0.594c0,0.228-0.02,0.425-0.06,0.594c0.04,0.158,0.06,0.356,0.06,0.594c0,0.228-0.02,0.426-0.06,0.594
		c0.04,0.159,0.06,0.356,0.06,0.594c0,0.228-0.02,0.426-0.06,0.594c0.04,0.159,0.06,0.356,0.06,0.594c0,0.228-0.02,0.426-0.06,0.594
		c0.04,0.158,0.06,0.356,0.06,0.594c0,0.228-0.02,0.425-0.06,0.594H8.16C8.2,193.596,8.219,193.793,8.219,194.031z"/>
	<path class="st1" d="M14.157,194.031c0,0.228-0.02,0.426-0.06,0.594h-3.562c-0.04-0.168-0.06-0.366-0.06-0.594
		c0-0.238,0.02-0.436,0.06-0.594h1.188c-0.039-0.168-0.06-0.366-0.06-0.594c0-0.238,0.021-0.436,0.06-0.594
		c-0.039-0.168-0.06-0.366-0.06-0.594c0-0.237,0.021-0.435,0.06-0.594c-0.039-0.168-0.06-0.366-0.06-0.594
		c0-0.237,0.021-0.435,0.06-0.594c-0.039-0.168-0.06-0.366-0.06-0.594c0-0.237,0.021-0.436,0.06-0.594h-0.891
		c-0.039-0.168-0.06-0.366-0.06-0.594c0-0.238,0.021-0.436,0.06-0.594h0.891c-0.039-0.168-0.06-0.366-0.06-0.594
		c0-0.238,0.021-0.436,0.06-0.594h1.188c0.04,0.159,0.06,0.356,0.06,0.594c0,0.228-0.02,0.425-0.06,0.594
		c0.04,0.158,0.06,0.356,0.06,0.594c0,0.228-0.02,0.425-0.06,0.594c0.04,0.158,0.06,0.356,0.06,0.594c0,0.228-0.02,0.426-0.06,0.594
		c0.04,0.159,0.06,0.356,0.06,0.594c0,0.228-0.02,0.426-0.06,0.594c0.04,0.159,0.06,0.356,0.06,0.594c0,0.228-0.02,0.426-0.06,0.594
		c0.04,0.158,0.06,0.356,0.06,0.594c0,0.228-0.02,0.425-0.06,0.594h1.188C14.137,193.596,14.157,193.793,14.157,194.031z"/>
</g>
</svg>
