<?xml version="1.0" encoding="utf-8"?>
<!-- Generator: Adobe Illustrator 21.0.0, SVG Export Plug-In . SVG Version: 6.00 Build 0)  -->
<svg version="1.1" id="Layer_1" xmlns="http://www.w3.org/2000/svg" xmlns:xlink="http://www.w3.org/1999/xlink" x="0px" y="0px"
	 viewBox="0 0 500 200" style="enable-background:new 0 0 500 200;" xml:space="preserve">
<style type="text/css">
	.st0{fill:none;stroke:#000000;stroke-width:0.5;stroke-miterlimit:10;}
</style>
<g>
	<g>
		<path d="M85.872,116.046h-14.59V86.759h11.011c1.482,0,2.692,0.154,3.633,0.461c0.94,0.308,1.663,0.724,2.17,1.247
			c0.506,0.524,0.849,1.131,1.03,1.817c0.18,0.688,0.271,1.429,0.271,2.224v3.472c0,1.084-0.19,2.079-0.569,2.983
			s-1.347,1.555-2.902,1.953c1.482,0,2.693,0.154,3.633,0.461c0.94,0.307,1.663,0.742,2.17,1.301c0.506,0.561,0.84,1.221,1.004,1.98
			c0.162,0.759,0.244,1.592,0.244,2.495v3.471c0,0.796-0.091,1.528-0.271,2.197c-0.181,0.669-0.516,1.239-1.004,1.708
			c-0.488,0.471-1.202,0.84-2.142,1.112C88.619,115.911,87.39,116.046,85.872,116.046z M82.292,87.301H71.825v13.614h10.468
			c1.482,0,2.657-0.136,3.525-0.407c0.868-0.271,1.527-0.632,1.98-1.085c0.451-0.452,0.741-0.976,0.868-1.573
			c0.126-0.597,0.19-1.22,0.19-1.871v-3.472c0-1.445-0.417-2.675-1.247-3.687C86.775,87.808,85.004,87.301,82.292,87.301z
			 M85.926,101.457H71.825v14.047h14.047c2.712,0,4.483-0.442,5.315-1.329c0.831-0.885,1.247-2.07,1.247-3.553v-3.471
			c0-1.627-0.407-2.983-1.221-4.068C90.4,101.999,88.638,101.457,85.926,101.457z"/>
		<path d="M121.341,116.046V86.759h0.543v28.745h18.874v-10.685h0.542v11.227H121.341z"/>
		<path d="M190.6,116.046v-9.328h-21.152v9.328h-0.543v-11.552c0-1.013,0.082-1.944,0.245-2.793
			c0.162-0.849,0.388-1.673,0.678-2.468l3.471-8.895c0.397-1.012,0.849-1.862,1.356-2.549c0.506-0.686,1.374-1.03,2.603-1.03h5.315
			c1.193,0,2.034,0.344,2.522,1.03c0.488,0.688,0.949,1.555,1.383,2.603l3.742,8.841c0.29,0.795,0.516,1.619,0.678,2.468
			c0.163,0.849,0.245,1.781,0.245,2.793v11.552H190.6z M169.448,104.494v1.681H190.6v-1.681c0-0.976-0.081-1.88-0.244-2.712
			c-0.162-0.832-0.372-1.608-0.624-2.332l-3.742-8.841c-0.398-0.94-0.814-1.726-1.247-2.36c-0.434-0.632-1.157-0.949-2.17-0.949
			h-5.315c-1.085,0-1.844,0.317-2.277,0.949c-0.434,0.634-0.832,1.402-1.193,2.306l-3.471,8.895
			c-0.253,0.724-0.461,1.501-0.624,2.332C169.53,102.614,169.448,103.518,169.448,104.494z"/>
		<path d="M237.408,115.504v0.542h-9.057c-3.51,0-5.831-0.542-6.972-1.627c-1.139-1.085-1.707-2.874-1.707-5.369V93.864
			c0-2.566,0.577-4.393,1.735-5.477c1.156-1.085,3.471-1.627,6.944-1.627h9.057v0.542h-9.057c-3.183,0-5.335,0.498-6.456,1.492
			c-1.121,0.995-1.681,2.684-1.681,5.071v15.187c0,2.351,0.542,4.013,1.628,4.989c1.084,0.976,3.254,1.464,6.509,1.464H237.408z"/>
		<path d="M265.771,116.046h-0.542V86.759h0.542v14.427h11.771l6.236-14.427h0.597l-6.236,14.427h2.223
			c2.205,0,3.851,0.416,4.936,1.247c1.084,0.832,1.626,2.188,1.626,4.068v9.545h-0.542v-9.545c0-1.735-0.507-2.964-1.518-3.688
			c-1.013-0.723-2.514-1.085-4.502-1.085h-14.59V116.046z"/>
		<path d="M333.132,86.759v0.542h-12.039c-1.52,0-2.731,0.417-3.635,1.247c-0.904,0.832-1.356,1.881-1.356,3.146v4.447
			c0,1.266,0.252,2.151,0.759,2.657c0.507,0.508,1.176,0.832,2.007,0.976l11.444,2.332c1.084,0.217,1.979,0.688,2.685,1.411
			c0.704,0.724,1.058,2.025,1.058,3.904v3.146c0,1.592-0.542,2.902-1.628,3.932c-1.084,1.031-2.549,1.546-4.393,1.546H314.53v-0.542
			h13.504c1.663,0,2.991-0.461,3.987-1.383c0.994-0.922,1.492-2.105,1.492-3.552v-3.146c0-1.698-0.298-2.865-0.895-3.497
			s-1.402-1.058-2.413-1.275l-11.444-2.332c-0.941-0.181-1.709-0.551-2.306-1.112c-0.597-0.56-0.895-1.581-0.895-3.064v-4.447
			c0-1.446,0.507-2.631,1.518-3.552c1.012-0.922,2.35-1.383,4.015-1.383H333.132z"/>
		<path d="M377.986,116.046h-17.247v-0.542h8.407V87.301h-8.407v-0.542h17.247v0.542h-8.298v28.203h8.298V116.046z"/>
		<path d="M414.161,116.046V87.301h-11.119v-0.542h22.779v0.542h-11.117v28.745H414.161z"/>
		<path d="M471,115.504v0.542h-18.278V86.759H471v0.542h-17.736v13.614h13.342v0.542h-13.342v14.047H471z"/>
	</g>
	<rect x="29.348" y="77.184" class="st0" width="18.296" height="45.632"/>
	
		<rect x="32.135" y="107.308" transform="matrix(-1.836970e-16 1 -1 -1.836970e-16 151.9462 74.9541)" width="12.722" height="12.284"/>
</g>
</svg>
