<?xml version="1.0" encoding="utf-8"?>
<!-- Generator: Adobe Illustrator 21.0.0, SVG Export Plug-In . SVG Version: 6.00 Build 0)  -->
<svg version="1.1" id="Layer_1" xmlns="http://www.w3.org/2000/svg" xmlns:xlink="http://www.w3.org/1999/xlink" x="0px" y="0px"
	 viewBox="0 0 550 145" style="enable-background:new 0 0 550 145;" xml:space="preserve">
<g>
	<path d="M53.4,47.1h-2.7c0.2,1,0.4,2.2,0.4,3.6c0,1.4-0.1,2.6-0.4,3.6H48c0.2,1,0.4,2.2,0.4,3.6c0,1.4-0.1,2.6-0.4,3.6h-2.7
		c0.2,1,0.4,2.2,0.4,3.6c0,1.4-0.1,2.6-0.4,3.6h-2.7c0.2,1,0.4,2.2,0.4,3.6c0,1.4-0.1,2.6-0.4,3.6h-2.7c0.2,1,0.4,2.2,0.4,3.6
		c0,1.4-0.1,2.6-0.4,3.6h-2.7c0.2,1,0.4,2.2,0.4,3.6c0,1.4-0.1,2.6-0.4,3.6h-2.7c0.2,1,0.4,2.2,0.4,3.6c0,1.4-0.1,2.6-0.4,3.6h-2.7
		c0.2,1,0.4,2.2,0.4,3.6c0,1.4-0.1,2.6-0.4,3.6h-7.3c-0.2-1-0.4-2.2-0.4-3.6c0-1.5,0.1-2.7,0.4-3.6h2.7c-0.2-1-0.4-2.2-0.4-3.6
		c0-1.5,0.1-2.7,0.4-3.6h2.7c-0.2-1-0.4-2.2-0.4-3.6c0-1.5,0.1-2.7,0.4-3.6h2.7c-0.2-1-0.4-2.2-0.4-3.6c0-1.5,0.1-2.7,0.4-3.6h2.7
		c-0.2-1-0.4-2.2-0.4-3.6c0-1.5,0.1-2.7,0.4-3.6H38c-0.2-1-0.4-2.2-0.4-3.6c0-1.5,0.1-2.7,0.4-3.6h2.7c-0.2-1-0.4-2.2-0.4-3.6
		c0-1.5,0.1-2.7,0.4-3.6h2.7c-0.2-1-0.4-2.2-0.4-3.6c0-1.5,0.1-2.7,0.4-3.6h2.7c-0.2-1-0.4-2.2-0.4-3.6c0-1.5,0.1-2.7,0.4-3.6h7.3
		c0.2,1,0.4,2.2,0.4,3.6C53.8,44.8,53.7,46,53.4,47.1z"/>
	<path d="M86.1,90.7c0.2,1,0.4,2.2,0.4,3.6c0,1.4-0.1,2.6-0.4,3.6H71.6c-0.2-1-0.4-2.2-0.4-3.6c0-1.5,0.1-2.7,0.4-3.6H68
		c-0.2-1-0.4-2.2-0.4-3.6c0-1.5,0.1-2.7,0.4-3.6c-0.2-1-0.4-2.2-0.4-3.6c0-1.5,0.1-2.7,0.4-3.6c-0.2-1-0.4-2.2-0.4-3.6
		c0-1.5,0.1-2.7,0.4-3.6h-7.3c-0.2-1-0.4-2.2-0.4-3.6c0-1.5,0.1-2.7,0.4-3.6H68c-0.2-1-0.4-2.2-0.4-3.6c0-1.5,0.1-2.7,0.4-3.6
		c-0.2-1-0.4-2.2-0.4-3.6c0-1.5,0.1-2.7,0.4-3.6h7.3c0.2,1,0.4,2.2,0.4,3.6c0,1.4-0.1,2.6-0.4,3.6c0.2,1,0.4,2.2,0.4,3.6
		c0,1.4-0.1,2.6-0.4,3.6h10.9c0.2,1,0.4,2.2,0.4,3.6c0,1.4-0.1,2.6-0.4,3.6H75.2c0.2,1,0.4,2.2,0.4,3.6c0,1.4-0.1,2.6-0.4,3.6
		c0.2,1,0.4,2.2,0.4,3.6c0,1.4-0.1,2.6-0.4,3.6c0.2,1,0.4,2.2,0.4,3.6c0,1.4-0.1,2.6-0.4,3.6H86.1z"/>
	<path d="M107,90.7h9.1c0.2,1,0.4,2.2,0.4,3.6c0,1.4-0.1,2.6-0.4,3.6h-14.5c-0.2-1-0.4-2.2-0.4-3.6c0-1.5,0.1-2.7,0.4-3.6H97
		c-0.2-1-0.4-2.2-0.4-3.6c0-1.5,0.1-2.7,0.4-3.6c-0.2-1-0.4-2.2-0.4-3.6c0-1.5,0.1-2.7,0.4-3.6c-0.2-1-0.4-2.2-0.4-3.6
		c0-1.5,0.1-2.7,0.4-3.6c-0.2-1-0.4-2.2-0.4-3.6c0-1.5,0.1-2.7,0.4-3.6h7.3c0.2,1,0.4,2.2,0.4,3.6c0,1.4-0.1,2.6-0.4,3.6
		c0.2,1,0.4,2.2,0.4,3.6c0,1.4-0.1,2.6-0.4,3.6c0.2,1,0.4,2.2,0.4,3.6c0,1.4-0.1,2.6-0.4,3.6h2.7c0.2,1,0.4,2.2,0.4,3.6
		C107.4,88.4,107.2,89.6,107,90.7z M126.4,72.5c0,1.4-0.1,2.6-0.4,3.6c0.2,1,0.4,2.2,0.4,3.6c0,1.4-0.1,2.6-0.4,3.6
		c0.2,1,0.4,2.2,0.4,3.6c0,1.4-0.1,2.6-0.4,3.6c0.2,1,0.4,2.2,0.4,3.6c0,1.4-0.1,2.6-0.4,3.6h-7.3c-0.2-1-0.4-2.2-0.4-3.6
		c0-1.5,0.1-2.7,0.4-3.6h-2.7c-0.2-1-0.4-2.2-0.4-3.6c0-1.5,0.1-2.7,0.4-3.6h2.7c-0.2-1-0.4-2.2-0.4-3.6c0-1.5,0.1-2.7,0.4-3.6
		c-0.2-1-0.4-2.2-0.4-3.6c0-1.5,0.1-2.7,0.4-3.6c-0.2-1-0.4-2.2-0.4-3.6c0-1.5,0.1-2.7,0.4-3.6h7.3c0.2,1,0.4,2.2,0.4,3.6
		c0,1.4-0.1,2.6-0.4,3.6C126.3,69.8,126.4,71,126.4,72.5z"/>
	<path d="M162.8,72.5c0,1.4-0.1,2.6-0.4,3.6h-7.3c-0.2-1-0.4-2.2-0.4-3.6c0-1.5,0.1-2.7,0.4-3.6h-6.4c0.2,1,0.4,2.2,0.4,3.6
		c0,1.4-0.1,2.6-0.4,3.6h-2.7c0.2,1,0.4,2.2,0.4,3.6c0,1.4-0.1,2.6-0.4,3.6c0.2,1,0.4,2.2,0.4,3.6c0,1.4-0.1,2.6-0.4,3.6h5.4
		c0.2,1,0.4,2.2,0.4,3.6c0,1.4-0.1,2.6-0.4,3.6h-18.2c-0.2-1-0.4-2.2-0.4-3.6c0-1.5,0.1-2.7,0.4-3.6h5.4c-0.2-1-0.4-2.2-0.4-3.6
		c0-1.5,0.1-2.7,0.4-3.6c-0.2-1-0.4-2.2-0.4-3.6c0-1.5,0.1-2.7,0.4-3.6c-0.2-1-0.4-2.2-0.4-3.6c0-1.5,0.1-2.7,0.4-3.6h-5.4
		c-0.2-1-0.4-2.2-0.4-3.6c0-1.5,0.1-2.7,0.4-3.6h9.1c0.2,1,0.4,2.2,0.4,3.6c0,1.4-0.1,2.6-0.4,3.6h3.6c-0.2-1-0.4-2.2-0.4-3.6
		c0-1.5,0.1-2.7,0.4-3.6h13.6c0.2,1,0.4,2.2,0.4,3.6c0,1.4-0.1,2.6-0.4,3.6h2.7C162.6,69.8,162.8,71,162.8,72.5z"/>
	<path d="M176,68.9h3.6c0.2,1,0.4,2.2,0.4,3.6c0,1.4-0.1,2.6-0.4,3.6h-2.7c0.2,1,0.4,2.2,0.4,3.6c0,1.4-0.1,2.6-0.4,3.6
		c0.2,1,0.4,2.2,0.4,3.6c0,1.4-0.1,2.6-0.4,3.6c0.2,1,0.4,2.2,0.4,3.6c0,1.4-0.1,2.6-0.4,3.6h-7.3c-0.2-1-0.4-2.2-0.4-3.6
		c0-1.5,0.1-2.7,0.4-3.6c-0.2-1-0.4-2.2-0.4-3.6c0-1.5,0.1-2.7,0.4-3.6c-0.2-1-0.4-2.2-0.4-3.6c0-1.5,0.1-2.7,0.4-3.6
		c-0.2-1-0.4-2.2-0.4-3.6c0-1.5,0.1-2.7,0.4-3.6c-0.2-1-0.4-2.2-0.4-3.6c0-1.5,0.1-2.7,0.4-3.6h6.4c0.2,1,0.4,2.2,0.4,3.6
		C176.4,66.6,176.3,67.8,176,68.9z M199.1,79.8c0,1.4-0.1,2.6-0.4,3.6c0.2,1,0.4,2.2,0.4,3.6c0,1.4-0.1,2.6-0.4,3.6
		c0.2,1,0.4,2.2,0.4,3.6c0,1.4-0.1,2.6-0.4,3.6h-7.3c-0.2-1-0.4-2.2-0.4-3.6c0-1.5,0.1-2.7,0.4-3.6c-0.2-1-0.4-2.2-0.4-3.6
		c0-1.5,0.1-2.7,0.4-3.6c-0.2-1-0.4-2.2-0.4-3.6c0-1.5,0.1-2.7,0.4-3.6c-0.2-1-0.4-2.2-0.4-3.6c0-1.5,0.1-2.7,0.4-3.6h-11.8
		c-0.2-1-0.4-2.2-0.4-3.6c0-1.5,0.1-2.7,0.4-3.6h14.5c0.2,1,0.4,2.2,0.4,3.6c0,1.4-0.1,2.6-0.4,3.6h4.5c0.2,1,0.4,2.2,0.4,3.6
		c0,1.4-0.1,2.6-0.4,3.6C199,77.1,199.1,78.3,199.1,79.8z"/>
	<path d="M249.9,87c0,1.4-0.1,2.6-0.4,3.6h-3.6c0.2,1,0.4,2.2,0.4,3.6c0,1.4-0.1,2.6-0.4,3.6h-3.6c-0.2-1-0.4-2.2-0.4-3.6
		c0-1.5,0.1-2.7,0.4-3.6c-0.2-1-0.4-2.2-0.4-3.6c0-1.5,0.1-2.7,0.4-3.6c-0.2-1-0.4-2.2-0.4-3.6c0-1.5,0.1-2.7,0.4-3.6
		c-0.2-1-0.4-2.2-0.4-3.6c0-1.5,0.1-2.7,0.4-3.6c-0.2-1-0.4-2.2-0.4-3.6c0-1.5,0.1-2.7,0.4-3.6c-0.2-1-0.4-2.2-0.4-3.6
		c0-1.5,0.1-2.7,0.4-3.6c-0.2-1-0.4-2.2-0.4-3.6c0-1.5,0.1-2.7,0.4-3.6h7.3c0.2,1,0.4,2.2,0.4,3.6c0,1.4-0.1,2.6-0.4,3.6
		c0.2,1,0.4,2.2,0.4,3.6c0,1.4-0.1,2.6-0.4,3.6c0.2,1,0.4,2.2,0.4,3.6c0,1.4-0.1,2.6-0.4,3.6h3.6c0.2,1,0.4,2.2,0.4,3.6
		c0,1.4-0.1,2.6-0.4,3.6h-3.6c0.2,1,0.4,2.2,0.4,3.6c0,1.4-0.1,2.6-0.4,3.6C249.8,84.4,249.9,85.6,249.9,87z M249.6,90.7h10.9
		c0.2,1,0.4,2.2,0.4,3.6c0,1.4-0.1,2.6-0.4,3.6h-10.9c-0.2-1-0.4-2.2-0.4-3.6C249.2,92.8,249.3,91.6,249.6,90.7z M271.4,83.4h-3.6
		c0.2,1,0.4,2.2,0.4,3.6c0,1.4-0.1,2.6-0.4,3.6h-7.3c-0.2-1-0.4-2.2-0.4-3.6c0-1.5,0.1-2.7,0.4-3.6h3.6c-0.2-1-0.4-2.2-0.4-3.6
		c0-1.5,0.1-2.7,0.4-3.6h-3.6c-0.2-1-0.4-2.2-0.4-3.6c0-1.5,0.1-2.7,0.4-3.6h-7.3c-0.2-1-0.4-2.2-0.4-3.6c0-1.5,0.1-2.7,0.4-3.6
		h10.9c0.2,1,0.4,2.2,0.4,3.6c0,1.4-0.1,2.6-0.4,3.6h3.6c0.2,1,0.4,2.2,0.4,3.6c0,1.4-0.1,2.6-0.4,3.6h3.6c0.2,1,0.4,2.2,0.4,3.6
		C271.7,81.2,271.6,82.4,271.4,83.4z"/>
	<path d="M308.1,94.3c0,1.4-0.1,2.6-0.4,3.6h-7.3c-0.2-1-0.4-2.2-0.4-3.6c0-1.5,0.1-2.7,0.4-3.6h-3.6c-0.2-1-0.4-2.2-0.4-3.6
		c0-1.5,0.1-2.7,0.4-3.6h-10.9c0.2,1,0.4,2.2,0.4,3.6c0,1.4-0.1,2.6-0.4,3.6h10.9c0.2,1,0.4,2.2,0.4,3.6c0,1.4-0.1,2.6-0.4,3.6
		h-14.5c-0.2-1-0.4-2.2-0.4-3.6c0-1.5,0.1-2.7,0.4-3.6h-3.6c-0.2-1-0.4-2.2-0.4-3.6c0-1.5,0.1-2.7,0.4-3.6h3.6
		c-0.2-1-0.4-2.2-0.4-3.6c0-1.5,0.1-2.7,0.4-3.6h14.5c-0.2-1-0.4-2.2-0.4-3.6c0-1.5,0.1-2.7,0.4-3.6h-12.7c-0.2-1-0.4-2.2-0.4-3.6
		c0-1.5,0.1-2.7,0.4-3.6h16.3c0.2,1,0.4,2.2,0.4,3.6c0,1.4-0.1,2.6-0.4,3.6h3.6c0.2,1,0.4,2.2,0.4,3.6c0,1.4-0.1,2.6-0.4,3.6
		c0.2,1,0.4,2.2,0.4,3.6c0,1.4-0.1,2.6-0.4,3.6c0.2,1,0.4,2.2,0.4,3.6c0,1.4-0.1,2.6-0.4,3.6h3.6C307.9,91.6,308.1,92.8,308.1,94.3z
		"/>
	<path d="M344,83.4c0.2,1,0.4,2.2,0.4,3.6c0,1.4-0.1,2.6-0.4,3.6h-3.6c0.2,1,0.4,2.2,0.4,3.6c0,1.4-0.1,2.6-0.4,3.6h-18.2
		c-0.2-1-0.4-2.2-0.4-3.6c0-1.5,0.1-2.7,0.4-3.6h-3.6c-0.2-1-0.4-2.2-0.4-3.6c0-1.5,0.1-2.7,0.4-3.6H315c-0.2-1-0.4-2.2-0.4-3.6
		c0-1.5,0.1-2.7,0.4-3.6h3.6c-0.2-1-0.4-2.2-0.4-3.6c0-1.5,0.1-2.7,0.4-3.6h3.6c-0.2-1-0.4-2.2-0.4-3.6c0-1.5,0.1-2.7,0.4-3.6h18.2
		c0.2,1,0.4,2.2,0.4,3.6c0,1.4-0.1,2.6-0.4,3.6h3.6c0.2,1,0.4,2.2,0.4,3.6c0,1.4-0.1,2.6-0.4,3.6h-7.3c-0.2-1-0.4-2.2-0.4-3.6
		c0-1.5,0.1-2.7,0.4-3.6h-10.9c0.2,1,0.4,2.2,0.4,3.6c0,1.4-0.1,2.6-0.4,3.6h-3.6c0.2,1,0.4,2.2,0.4,3.6c0,1.4-0.1,2.6-0.4,3.6h3.6
		c0.2,1,0.4,2.2,0.4,3.6c0,1.4-0.1,2.6-0.4,3.6h10.9c-0.2-1-0.4-2.2-0.4-3.6c0-1.5,0.1-2.7,0.4-3.6H344z"/>
	<path d="M380.7,94.3c0,1.4-0.1,2.6-0.4,3.6h-12.7c-0.2-1-0.4-2.2-0.4-3.6c0-1.5,0.1-2.7,0.4-3.6H364c-0.2-1-0.4-2.2-0.4-3.6
		c0-1.5,0.1-2.7,0.4-3.6h-5.4c0.2,1,0.4,2.2,0.4,3.6c0,1.4-0.1,2.6-0.4,3.6c0.2,1,0.4,2.2,0.4,3.6c0,1.4-0.1,2.6-0.4,3.6h-7.3
		c-0.2-1-0.4-2.2-0.4-3.6c0-1.5,0.1-2.7,0.4-3.6c-0.2-1-0.4-2.2-0.4-3.6c0-1.5,0.1-2.7,0.4-3.6c-0.2-1-0.4-2.2-0.4-3.6
		c0-1.5,0.1-2.7,0.4-3.6c-0.2-1-0.4-2.2-0.4-3.6c0-1.5,0.1-2.7,0.4-3.6c-0.2-1-0.4-2.2-0.4-3.6c0-1.5,0.1-2.7,0.4-3.6
		c-0.2-1-0.4-2.2-0.4-3.6c0-1.5,0.1-2.7,0.4-3.6c-0.2-1-0.4-2.2-0.4-3.6c0-1.5,0.1-2.7,0.4-3.6h7.3c0.2,1,0.4,2.2,0.4,3.6
		c0,1.4-0.1,2.6-0.4,3.6c0.2,1,0.4,2.2,0.4,3.6c0,1.4-0.1,2.6-0.4,3.6c0.2,1,0.4,2.2,0.4,3.6c0,1.4-0.1,2.6-0.4,3.6
		c0.2,1,0.4,2.2,0.4,3.6c0,1.4-0.1,2.6-0.4,3.6h5.4c-0.2-1-0.4-2.2-0.4-3.6c0-1.5,0.1-2.7,0.4-3.6h3.6c-0.2-1-0.4-2.2-0.4-3.6
		c0-1.5,0.1-2.7,0.4-3.6h10.9c0.2,1,0.4,2.2,0.4,3.6c0,1.4-0.1,2.6-0.4,3.6h-7.3c0.2,1,0.4,2.2,0.4,3.6c0,1.4-0.1,2.6-0.4,3.6h-3.6
		c0.2,1,0.4,2.2,0.4,3.6c0,1.4-0.1,2.6-0.4,3.6h3.6c0.2,1,0.4,2.2,0.4,3.6c0,1.4-0.1,2.6-0.4,3.6h9.1
		C380.6,91.6,380.7,92.8,380.7,94.3z"/>
	<path d="M430.3,68.9h3.6c0.2,1,0.4,2.2,0.4,3.6c0,1.4-0.1,2.6-0.4,3.6h-2.7c0.2,1,0.4,2.2,0.4,3.6c0,1.4-0.1,2.6-0.4,3.6
		c0.2,1,0.4,2.2,0.4,3.6c0,1.4-0.1,2.6-0.4,3.6c0.2,1,0.4,2.2,0.4,3.6c0,1.4-0.1,2.6-0.4,3.6h-7.3c-0.2-1-0.4-2.2-0.4-3.6
		c0-1.5,0.1-2.7,0.4-3.6c-0.2-1-0.4-2.2-0.4-3.6c0-1.5,0.1-2.7,0.4-3.6c-0.2-1-0.4-2.2-0.4-3.6c0-1.5,0.1-2.7,0.4-3.6
		c-0.2-1-0.4-2.2-0.4-3.6c0-1.5,0.1-2.7,0.4-3.6c-0.2-1-0.4-2.2-0.4-3.6c0-1.5,0.1-2.7,0.4-3.6h6.4c0.2,1,0.4,2.2,0.4,3.6
		C430.6,66.6,430.5,67.8,430.3,68.9z M453.4,79.8c0,1.4-0.1,2.6-0.4,3.6c0.2,1,0.4,2.2,0.4,3.6c0,1.4-0.1,2.6-0.4,3.6
		c0.2,1,0.4,2.2,0.4,3.6c0,1.4-0.1,2.6-0.4,3.6h-7.3c-0.2-1-0.4-2.2-0.4-3.6c0-1.5,0.1-2.7,0.4-3.6c-0.2-1-0.4-2.2-0.4-3.6
		c0-1.5,0.1-2.7,0.4-3.6c-0.2-1-0.4-2.2-0.4-3.6c0-1.5,0.1-2.7,0.4-3.6c-0.2-1-0.4-2.2-0.4-3.6c0-1.5,0.1-2.7,0.4-3.6h-11.8
		c-0.2-1-0.4-2.2-0.4-3.6c0-1.5,0.1-2.7,0.4-3.6h14.5c0.2,1,0.4,2.2,0.4,3.6c0,1.4-0.1,2.6-0.4,3.6h4.5c0.2,1,0.4,2.2,0.4,3.6
		c0,1.4-0.1,2.6-0.4,3.6C453.2,77.1,453.4,78.3,453.4,79.8z"/>
	<path d="M489.3,83.4h-2.7c0.2,1,0.4,2.2,0.4,3.6c0,1.4-0.1,2.6-0.4,3.6H482c0.2,1,0.4,2.2,0.4,3.6c0,1.4-0.1,2.6-0.4,3.6h-14.5
		c-0.2-1-0.4-2.2-0.4-3.6c0-1.5,0.1-2.7,0.4-3.6H463c-0.2-1-0.4-2.2-0.4-3.6c0-1.5,0.1-2.7,0.4-3.6h-2.7c-0.2-1-0.4-2.2-0.4-3.6
		c0-1.5,0.1-2.7,0.4-3.6h2.7c-0.2-1-0.4-2.2-0.4-3.6c0-1.5,0.1-2.7,0.4-3.6h4.5c-0.2-1-0.4-2.2-0.4-3.6c0-1.5,0.1-2.7,0.4-3.6H482
		c0.2,1,0.4,2.2,0.4,3.6c0,1.4-0.1,2.6-0.4,3.6h4.5c0.2,1,0.4,2.2,0.4,3.6c0,1.4-0.1,2.6-0.4,3.6h2.7c0.2,1,0.4,2.2,0.4,3.6
		C489.7,81.2,489.6,82.4,489.3,83.4z M482,83.4c-0.2-1-0.4-2.2-0.4-3.6c0-1.5,0.1-2.7,0.4-3.6h-2.7c-0.2-1-0.4-2.2-0.4-3.6
		c0-1.5,0.1-2.7,0.4-3.6h-9.1c0.2,1,0.4,2.2,0.4,3.6c0,1.4-0.1,2.6-0.4,3.6h-2.7c0.2,1,0.4,2.2,0.4,3.6c0,1.4-0.1,2.6-0.4,3.6h2.7
		c0.2,1,0.4,2.2,0.4,3.6c0,1.4-0.1,2.6-0.4,3.6h9.1c-0.2-1-0.4-2.2-0.4-3.6c0-1.5,0.1-2.7,0.4-3.6H482z"/>
	<path d="M525.6,68.9c0.2,1,0.4,2.2,0.4,3.6c0,1.4-0.1,2.6-0.4,3.6h-2.7c0.2,1,0.4,2.2,0.4,3.6c0,1.4-0.1,2.6-0.4,3.6
		c0.2,1,0.4,2.2,0.4,3.6c0,1.4-0.1,2.6-0.4,3.6h-1.8c0.2,1,0.4,2.2,0.4,3.6c0,1.4-0.1,2.6-0.4,3.6h-5.4c-0.2-1-0.4-2.2-0.4-3.6
		c0-1.5,0.1-2.7,0.4-3.6h-1.8c-0.2-1-0.4-2.2-0.4-3.6c0-1.5,0.1-2.7,0.4-3.6h-5.4c0.2,1,0.4,2.2,0.4,3.6c0,1.4-0.1,2.6-0.4,3.6h-1.8
		c0.2,1,0.4,2.2,0.4,3.6c0,1.4-0.1,2.6-0.4,3.6h-5.4c-0.2-1-0.4-2.2-0.4-3.6c0-1.5,0.1-2.7,0.4-3.6h-1.8c-0.2-1-0.4-2.2-0.4-3.6
		c0-1.5,0.1-2.7,0.4-3.6c-0.2-1-0.4-2.2-0.4-3.6c0-1.5,0.1-2.7,0.4-3.6h-2.7c-0.2-1-0.4-2.2-0.4-3.6c0-1.5,0.1-2.7,0.4-3.6
		c-0.2-1-0.4-2.2-0.4-3.6c0-1.5,0.1-2.7,0.4-3.6h7.3c0.2,1,0.4,2.2,0.4,3.6c0,1.4-0.1,2.6-0.4,3.6c0.2,1,0.4,2.2,0.4,3.6
		c0,1.4-0.1,2.6-0.4,3.6c0.2,1,0.4,2.2,0.4,3.6c0,1.4-0.1,2.6-0.4,3.6h2.7c-0.2-1-0.4-2.2-0.4-3.6c0-1.5,0.1-2.7,0.4-3.6h1.8
		c-0.2-1-0.4-2.2-0.4-3.6c0-1.5,0.1-2.7,0.4-3.6c-0.2-1-0.4-2.2-0.4-3.6c0-1.5,0.1-2.7,0.4-3.6h5.4c0.2,1,0.4,2.2,0.4,3.6
		c0,1.4-0.1,2.6-0.4,3.6c0.2,1,0.4,2.2,0.4,3.6c0,1.4-0.1,2.6-0.4,3.6h1.8c0.2,1,0.4,2.2,0.4,3.6c0,1.4-0.1,2.6-0.4,3.6h2.7
		c-0.2-1-0.4-2.2-0.4-3.6c0-1.5,0.1-2.7,0.4-3.6c-0.2-1-0.4-2.2-0.4-3.6c0-1.5,0.1-2.7,0.4-3.6c-0.2-1-0.4-2.2-0.4-3.6
		c0-1.5,0.1-2.7,0.4-3.6h7.3c0.2,1,0.4,2.2,0.4,3.6C526,66.6,525.9,67.8,525.6,68.9z"/>
</g>
</svg>
