<?xml version="1.0" encoding="utf-8"?>
<!-- Generator: Adobe Illustrator 21.0.0, SVG Export Plug-In . SVG Version: 6.00 Build 0)  -->
<svg version="1.1" id="Layer_1" xmlns="http://www.w3.org/2000/svg" xmlns:xlink="http://www.w3.org/1999/xlink" x="0px" y="0px"
	 viewBox="0 0 550 145" style="enable-background:new 0 0 550 145;" xml:space="preserve">
<g>
	<path d="M121.319,49.114h-2.506c0.222,0.892,0.334,2.005,0.334,3.341c0,1.281-0.113,2.395-0.334,3.341h-2.506
		c0.222,0.892,0.334,2.005,0.334,3.341c0,1.281-0.113,2.395-0.334,3.341h-2.506c0.222,0.892,0.334,2.005,0.334,3.341
		c0,1.281-0.113,2.395-0.334,3.341h-2.506c0.222,0.892,0.334,2.005,0.334,3.341c0,1.281-0.113,2.395-0.334,3.341h-2.506
		c0.222,0.892,0.334,2.005,0.334,3.341c0,1.281-0.113,2.395-0.334,3.341h-2.506c0.222,0.892,0.334,2.005,0.334,3.341
		c0,1.281-0.113,2.395-0.334,3.341h-2.506c0.222,0.892,0.334,2.005,0.334,3.341c0,1.281-0.113,2.395-0.334,3.341h-2.506
		c0.222,0.89,0.334,2.005,0.334,3.341c0,1.281-0.113,2.393-0.334,3.341h-6.682c-0.223-0.948-0.334-2.06-0.334-3.341
		c0-1.336,0.111-2.451,0.334-3.341h2.506c-0.223-0.946-0.334-2.06-0.334-3.341c0-1.336,0.111-2.449,0.334-3.341h2.506
		c-0.223-0.946-0.334-2.06-0.334-3.341c0-1.336,0.111-2.449,0.334-3.341h2.506c-0.223-0.946-0.334-2.06-0.334-3.341
		c0-1.336,0.111-2.449,0.334-3.341h2.506c-0.223-0.946-0.334-2.06-0.334-3.341c0-1.336,0.111-2.449,0.334-3.341h2.506
		c-0.223-0.946-0.334-2.06-0.334-3.341c0-1.336,0.111-2.449,0.334-3.341h2.506c-0.223-0.946-0.334-2.06-0.334-3.341
		c0-1.336,0.111-2.449,0.334-3.341h2.506c-0.223-0.946-0.334-2.06-0.334-3.341c0-1.336,0.111-2.449,0.334-3.341h2.506
		c-0.223-0.946-0.334-2.06-0.334-3.341c0-1.336,0.111-2.449,0.334-3.341h6.682c0.222,0.892,0.334,2.005,0.334,3.341
		C121.653,47.054,121.541,48.168,121.319,49.114z"/>
	<path d="M155.062,72.5c0,1.281-0.113,2.395-0.334,3.341h-6.682c-0.223-0.946-0.334-2.06-0.334-3.341
		c0-1.336,0.111-2.449,0.334-3.341h-5.847c0.222,0.892,0.334,2.005,0.334,3.341c0,1.281-0.113,2.395-0.334,3.341h-2.506
		c0.222,0.892,0.334,2.005,0.334,3.341c0,1.281-0.113,2.395-0.334,3.341c0.222,0.892,0.334,2.005,0.334,3.341
		c0,1.281-0.113,2.395-0.334,3.341h5.011c0.222,0.892,0.334,2.005,0.334,3.341c0,1.281-0.113,2.395-0.334,3.341H128
		c-0.223-0.946-0.334-2.06-0.334-3.341c0-1.336,0.111-2.449,0.334-3.341h5.011c-0.223-0.946-0.334-2.06-0.334-3.341
		c0-1.336,0.111-2.449,0.334-3.341c-0.223-0.946-0.334-2.06-0.334-3.341c0-1.336,0.111-2.449,0.334-3.341
		c-0.223-0.946-0.334-2.06-0.334-3.341c0-1.336,0.111-2.449,0.334-3.341H128c-0.223-0.946-0.334-2.06-0.334-3.341
		c0-1.336,0.111-2.449,0.334-3.341h8.352c0.222,0.892,0.334,2.005,0.334,3.341c0,1.281-0.113,2.395-0.334,3.341h3.341
		c-0.223-0.946-0.334-2.06-0.334-3.341c0-1.336,0.111-2.449,0.334-3.341h12.528c0.222,0.892,0.334,2.005,0.334,3.341
		c0,1.281-0.113,2.395-0.334,3.341h2.506C154.95,70.051,155.062,71.164,155.062,72.5z"/>
	<path d="M188.137,75.841c0.222,0.892,0.334,2.005,0.334,3.341c0,1.281-0.113,2.395-0.334,3.341h-17.54
		c0.222,0.892,0.334,2.005,0.334,3.341c0,1.281-0.113,2.395-0.334,3.341h14.199c0.222,0.892,0.334,2.005,0.334,3.341
		c0,1.281-0.113,2.395-0.334,3.341h-16.704c-0.223-0.946-0.334-2.06-0.334-3.341c0-1.336,0.111-2.449,0.334-3.341h-4.176
		c-0.223-0.946-0.334-2.06-0.334-3.341c0-1.336,0.111-2.449,0.334-3.341h-2.506c-0.223-0.946-0.334-2.06-0.334-3.341
		c0-1.336,0.111-2.449,0.334-3.341h2.506c-0.223-0.946-0.334-2.06-0.334-3.341c0-1.336,0.111-2.449,0.334-3.341h4.176
		c-0.223-0.946-0.334-2.06-0.334-3.341c0-1.336,0.111-2.449,0.334-3.341h16.704c0.222,0.892,0.334,2.005,0.334,3.341
		c0,1.281-0.113,2.395-0.334,3.341h3.341c0.222,0.892,0.334,2.005,0.334,3.341C188.471,73.781,188.359,74.895,188.137,75.841z
		 M181.12,72.5c0-1.336,0.111-2.449,0.334-3.341h-10.858c0.222,0.892,0.334,2.005,0.334,3.341c0,1.281-0.113,2.395-0.334,3.341
		h10.858C181.231,74.895,181.12,73.781,181.12,72.5z"/>
	<path d="M219.875,89.204h-3.341c0.222,0.892,0.334,2.005,0.334,3.341c0,1.281-0.113,2.395-0.334,3.341h-18.375
		c-0.223-0.946-0.334-2.06-0.334-3.341c0-1.336,0.111-2.449,0.334-3.341h15.034c-0.223-0.946-0.334-2.06-0.334-3.341
		c0-1.336,0.111-2.449,0.334-3.341H199.83c-0.223-0.946-0.334-2.06-0.334-3.341c0-1.336,0.111-2.449,0.334-3.341h-3.341
		c-0.223-0.946-0.334-2.06-0.334-3.341c0-1.336,0.111-2.449,0.334-3.341h3.341c-0.223-0.946-0.334-2.06-0.334-3.341
		c0-1.336,0.111-2.449,0.334-3.341h18.375c0.222,0.892,0.334,2.005,0.334,3.341c0,1.281-0.113,2.395-0.334,3.341h-15.034
		c0.222,0.892,0.334,2.005,0.334,3.341c0,1.281-0.113,2.395-0.334,3.341h13.364c0.222,0.892,0.334,2.005,0.334,3.341
		c0,1.281-0.113,2.395-0.334,3.341h3.341c0.222,0.892,0.334,2.005,0.334,3.341C220.21,87.145,220.097,88.258,219.875,89.204z"/>
	<path d="M251.614,89.204c0.222,0.892,0.334,2.005,0.334,3.341c0,1.281-0.113,2.395-0.334,3.341H238.25
		c-0.223-0.946-0.334-2.06-0.334-3.341c0-1.336,0.111-2.449,0.334-3.341h-3.341c-0.223-0.946-0.334-2.06-0.334-3.341
		c0-1.336,0.111-2.449,0.334-3.341c-0.223-0.946-0.334-2.06-0.334-3.341c0-1.336,0.111-2.449,0.334-3.341
		c-0.223-0.946-0.334-2.06-0.334-3.341c0-1.336,0.111-2.449,0.334-3.341h-6.682c-0.223-0.946-0.334-2.06-0.334-3.341
		c0-1.336,0.111-2.449,0.334-3.341h6.682c-0.223-0.946-0.334-2.06-0.334-3.341c0-1.336,0.111-2.449,0.334-3.341
		c-0.223-0.946-0.334-2.06-0.334-3.341c0-1.336,0.111-2.449,0.334-3.341h6.682c0.222,0.892,0.334,2.005,0.334,3.341
		c0,1.281-0.113,2.395-0.334,3.341c0.222,0.892,0.334,2.005,0.334,3.341c0,1.281-0.113,2.395-0.334,3.341h10.023
		c0.222,0.892,0.334,2.005,0.334,3.341c0,1.281-0.113,2.395-0.334,3.341h-10.023c0.222,0.892,0.334,2.005,0.334,3.341
		c0,1.281-0.113,2.395-0.334,3.341c0.222,0.892,0.334,2.005,0.334,3.341c0,1.281-0.113,2.395-0.334,3.341
		c0.222,0.892,0.334,2.005,0.334,3.341c0,1.281-0.113,2.395-0.334,3.341H251.614z"/>
	<path d="M288.698,72.5c0,1.281-0.113,2.395-0.334,3.341h-6.682c-0.223-0.946-0.334-2.06-0.334-3.341
		c0-1.336,0.111-2.449,0.334-3.341h-5.847c0.222,0.892,0.334,2.005,0.334,3.341c0,1.281-0.113,2.395-0.334,3.341h-2.506
		c0.222,0.892,0.334,2.005,0.334,3.341c0,1.281-0.113,2.395-0.334,3.341c0.222,0.892,0.334,2.005,0.334,3.341
		c0,1.281-0.113,2.395-0.334,3.341h5.011c0.222,0.892,0.334,2.005,0.334,3.341c0,1.281-0.113,2.395-0.334,3.341h-16.704
		c-0.223-0.946-0.334-2.06-0.334-3.341c0-1.336,0.111-2.449,0.334-3.341h5.011c-0.224-0.946-0.334-2.06-0.334-3.341
		c0-1.336,0.111-2.449,0.334-3.341c-0.224-0.946-0.334-2.06-0.334-3.341c0-1.336,0.111-2.449,0.334-3.341
		c-0.224-0.946-0.334-2.06-0.334-3.341c0-1.336,0.111-2.449,0.334-3.341h-5.011c-0.223-0.946-0.334-2.06-0.334-3.341
		c0-1.336,0.111-2.449,0.334-3.341h8.352c0.222,0.892,0.334,2.005,0.334,3.341c0,1.281-0.113,2.395-0.334,3.341h3.341
		c-0.224-0.946-0.334-2.06-0.334-3.341c0-1.336,0.111-2.449,0.334-3.341h12.528c0.222,0.892,0.334,2.005,0.334,3.341
		c0,1.281-0.113,2.395-0.334,3.341h2.506C288.585,70.051,288.698,71.164,288.698,72.5z"/>
	<path d="M318.766,92.545c0,1.281-0.113,2.395-0.334,3.341h-20.045c-0.223-0.946-0.334-2.06-0.334-3.341
		c0-1.336,0.111-2.449,0.334-3.341h6.682c-0.223-0.946-0.334-2.06-0.334-3.341c0-1.336,0.111-2.449,0.334-3.341
		c-0.223-0.946-0.334-2.06-0.334-3.341c0-1.336,0.111-2.449,0.334-3.341c-0.223-0.946-0.334-2.06-0.334-3.341
		c0-1.336,0.111-2.449,0.334-3.341h-5.011c-0.223-0.946-0.334-2.06-0.334-3.341c0-1.336,0.111-2.449,0.334-3.341h11.693
		c0.222,0.892,0.334,2.005,0.334,3.341c0,1.281-0.113,2.395-0.334,3.341c0.222,0.892,0.334,2.005,0.334,3.341
		c0,1.281-0.113,2.395-0.334,3.341c0.222,0.892,0.334,2.005,0.334,3.341c0,1.281-0.113,2.395-0.334,3.341
		c0.222,0.892,0.334,2.005,0.334,3.341c0,1.281-0.113,2.395-0.334,3.341h6.682C318.654,90.096,318.766,91.209,318.766,92.545z
		 M305.068,55.796c-0.223-0.946-0.334-2.06-0.334-3.341c0-1.336,0.111-2.449,0.334-3.341h6.682c0.222,0.892,0.334,2.005,0.334,3.341
		c0,1.281-0.113,2.395-0.334,3.341H305.068z"/>
	<path d="M355.182,82.523c0.222,0.892,0.334,2.005,0.334,3.341c0,1.281-0.113,2.395-0.334,3.341h-3.341
		c0.222,0.892,0.334,2.005,0.334,3.341c0,1.281-0.113,2.395-0.334,3.341h-16.704c-0.223-0.946-0.334-2.06-0.334-3.341
		c0-1.336,0.111-2.449,0.334-3.341h-3.341c-0.223-0.946-0.334-2.06-0.334-3.341c0-1.336,0.111-2.449,0.334-3.341h-3.341
		c-0.223-0.946-0.334-2.06-0.334-3.341c0-1.336,0.111-2.449,0.334-3.341h3.341c-0.223-0.946-0.334-2.06-0.334-3.341
		c0-1.336,0.111-2.449,0.334-3.341h3.341c-0.223-0.946-0.334-2.06-0.334-3.341c0-1.336,0.111-2.449,0.334-3.341h16.704
		c0.222,0.892,0.334,2.005,0.334,3.341c0,1.281-0.113,2.395-0.334,3.341h3.341c0.222,0.892,0.334,2.005,0.334,3.341
		c0,1.281-0.113,2.395-0.334,3.341H348.5c-0.223-0.946-0.334-2.06-0.334-3.341c0-1.336,0.111-2.449,0.334-3.341h-10.023
		c0.222,0.892,0.334,2.005,0.334,3.341c0,1.281-0.113,2.395-0.334,3.341h-3.341c0.222,0.892,0.334,2.005,0.334,3.341
		c0,1.281-0.113,2.395-0.334,3.341h3.341c0.222,0.892,0.334,2.005,0.334,3.341c0,1.281-0.113,2.395-0.334,3.341H348.5
		c-0.223-0.946-0.334-2.06-0.334-3.341c0-1.336,0.111-2.449,0.334-3.341H355.182z"/>
	<path d="M385.25,89.204c0.222,0.892,0.334,2.005,0.334,3.341c0,1.281-0.113,2.395-0.334,3.341h-13.364
		c-0.223-0.946-0.334-2.06-0.334-3.341c0-1.336,0.111-2.449,0.334-3.341h-3.341c-0.223-0.946-0.334-2.06-0.334-3.341
		c0-1.336,0.111-2.449,0.334-3.341c-0.223-0.946-0.334-2.06-0.334-3.341c0-1.336,0.111-2.449,0.334-3.341
		c-0.223-0.946-0.334-2.06-0.334-3.341c0-1.336,0.111-2.449,0.334-3.341h-6.682c-0.223-0.946-0.334-2.06-0.334-3.341
		c0-1.336,0.111-2.449,0.334-3.341h6.682c-0.223-0.946-0.334-2.06-0.334-3.341c0-1.336,0.111-2.449,0.334-3.341
		c-0.223-0.946-0.334-2.06-0.334-3.341c0-1.336,0.111-2.449,0.334-3.341h6.682c0.222,0.892,0.334,2.005,0.334,3.341
		c0,1.281-0.113,2.395-0.334,3.341c0.222,0.892,0.334,2.005,0.334,3.341c0,1.281-0.113,2.395-0.334,3.341h10.023
		c0.222,0.892,0.334,2.005,0.334,3.341c0,1.281-0.113,2.395-0.334,3.341h-10.023c0.222,0.892,0.334,2.005,0.334,3.341
		c0,1.281-0.113,2.395-0.334,3.341c0.222,0.892,0.334,2.005,0.334,3.341c0,1.281-0.113,2.395-0.334,3.341
		c0.222,0.892,0.334,2.005,0.334,3.341c0,1.281-0.113,2.395-0.334,3.341H385.25z"/>
	<path d="M422,75.841c0.222,0.892,0.334,2.005,0.334,3.341c0,1.281-0.113,2.395-0.334,3.341h-17.54
		c0.222,0.892,0.334,2.005,0.334,3.341c0,1.281-0.113,2.395-0.334,3.341h14.199c0.222,0.892,0.334,2.005,0.334,3.341
		c0,1.281-0.113,2.395-0.334,3.341h-16.704c-0.223-0.946-0.334-2.06-0.334-3.341c0-1.336,0.111-2.449,0.334-3.341h-4.176
		c-0.224-0.946-0.334-2.06-0.334-3.341c0-1.336,0.111-2.449,0.334-3.341h-2.506c-0.224-0.946-0.334-2.06-0.334-3.341
		c0-1.336,0.111-2.449,0.334-3.341h2.506c-0.224-0.946-0.334-2.06-0.334-3.341c0-1.336,0.111-2.449,0.334-3.341h4.176
		c-0.223-0.946-0.334-2.06-0.334-3.341c0-1.336,0.111-2.449,0.334-3.341h16.704c0.222,0.892,0.334,2.005,0.334,3.341
		c0,1.281-0.113,2.395-0.334,3.341H422c0.222,0.892,0.334,2.005,0.334,3.341C422.334,73.781,422.221,74.895,422,75.841z
		 M414.983,72.5c0-1.336,0.111-2.449,0.334-3.341H404.46c0.222,0.892,0.334,2.005,0.334,3.341c0,1.281-0.113,2.395-0.334,3.341
		h10.858C415.094,74.895,414.983,73.781,414.983,72.5z"/>
	<path d="M444.551,69.159h-8.352c0.222,0.892,0.334,2.005,0.334,3.341c0,1.281-0.113,2.395-0.334,3.341h-2.506
		c0.222,0.892,0.334,2.005,0.334,3.341c0,1.281-0.113,2.395-0.334,3.341h2.506c0.222,0.892,0.334,2.005,0.334,3.341
		c0,1.281-0.113,2.395-0.334,3.341h8.352c0.222,0.892,0.334,2.005,0.334,3.341c0,1.281-0.113,2.395-0.334,3.341h-9.187
		c-0.223-0.946-0.334-2.06-0.334-3.341c0-1.336,0.111-2.449,0.334-3.341h-4.176c-0.223-0.946-0.334-2.06-0.334-3.341
		c0-1.336,0.111-2.449,0.334-3.341h-2.506c-0.223-0.946-0.334-2.06-0.334-3.341c0-1.336,0.111-2.449,0.334-3.341h2.506
		c-0.223-0.946-0.334-2.06-0.334-3.341c0-1.336,0.111-2.449,0.334-3.341h4.176c-0.223-0.946-0.334-2.06-0.334-3.341
		c0-1.336,0.111-2.449,0.334-3.341h9.187c0.222,0.892,0.334,2.005,0.334,3.341C444.885,67.1,444.772,68.213,444.551,69.159z
		 M455.743,59.136c0,1.281-0.113,2.395-0.334,3.341c0.222,0.892,0.334,2.005,0.334,3.341c0,1.281-0.113,2.395-0.334,3.341
		c0.222,0.892,0.334,2.005,0.334,3.341c0,1.281-0.113,2.395-0.334,3.341c0.222,0.892,0.334,2.005,0.334,3.341
		c0,1.281-0.113,2.395-0.334,3.341c0.222,0.892,0.334,2.005,0.334,3.341c0,1.281-0.113,2.395-0.334,3.341
		c0.222,0.892,0.334,2.005,0.334,3.341c0,1.281-0.113,2.395-0.334,3.341h-6.682c-0.223-0.946-0.334-2.06-0.334-3.341
		c0-1.336,0.111-2.449,0.334-3.341h-2.506c-0.224-0.946-0.334-2.06-0.334-3.341c0-1.336,0.111-2.449,0.334-3.341h2.506
		c-0.223-0.946-0.334-2.06-0.334-3.341c0-1.336,0.111-2.449,0.334-3.341h-2.506c-0.224-0.946-0.334-2.06-0.334-3.341
		c0-1.336,0.111-2.449,0.334-3.341h2.506c-0.223-0.946-0.334-2.06-0.334-3.341c0-1.336,0.111-2.449,0.334-3.341
		c-0.223-0.946-0.334-2.06-0.334-3.341c0-1.336,0.111-2.449,0.334-3.341c-0.223-0.946-0.334-2.06-0.334-3.341
		c0-1.336,0.111-2.449,0.334-3.341h6.682c0.222,0.892,0.334,2.005,0.334,3.341c0,1.281-0.113,2.395-0.334,3.341
		C455.63,56.687,455.743,57.8,455.743,59.136z"/>
</g>
</svg>
